/* XPM */
static char *f732a84cf6314845905fb465de6b8fc8JAbdCJjWO0vjgWCI[] = {
/* columns rows colors chars-per-pixel */
"64 64 192 2 ",
"   c black",
".  c #0C0000",
"X  c #130000",
"o  c #1C0000",
"O  c #250000",
"+  c #2C0000",
"@  c #340000",
"#  c #3B0000",
"$  c #2A202D",
"%  c #430000",
"&  c #4C0000",
"*  c #540000",
"=  c #5C0000",
"-  c #53131B",
";  c #630000",
":  c #6B0000",
">  c #6C090C",
",  c #730000",
"<  c #7A0000",
"1  c #67161E",
"2  c #6F0D12",
"3  c #551821",
"4  c #671821",
"5  c #302F41",
"6  c #613A4F",
"7  c #4E3043",
"8  c #345271",
"9  c #59516E",
"0  c #675878",
"q  c #755070",
"w  c #840000",
"e  c #8C0000",
"r  c #940000",
"t  c #9C0000",
"y  c #9B0A0E",
"u  c #8D0F14",
"i  c #A40000",
"p  c #AC0000",
"a  c #B50000",
"s  c #BB0000",
"d  c #B6090D",
"f  c #B4151D",
"g  c #AE1117",
"h  c #B41A24",
"j  c #B51B25",
"k  c #B4222F",
"l  c #B52431",
"z  c #B52B3A",
"x  c #B62534",
"c  c #8F2A39",
"v  c #C20000",
"b  c #C0151D",
"n  c #FF0000",
"m  c #FF090D",
"M  c #FF0E13",
"N  c #FF131B",
"B  c #FF1117",
"V  c #FF1B25",
"C  c #FF232F",
"Z  c #FF2431",
"A  c #FF2B3A",
"S  c #FF2836",
"D  c #8C3246",
"F  c #B63548",
"G  c #B63B51",
"H  c #B93C54",
"J  c #FF3144",
"K  c #FF374C",
"L  c #FF384B",
"P  c #FF3C53",
"I  c #814964",
"U  c #8A5A7C",
"Y  c #B54964",
"T  c #B44761",
"R  c #B4526E",
"E  c #B5597A",
"W  c #BA5373",
"Q  c #FF435C",
"!  c #FF4057",
"~  c #FF4964",
"^  c #FF4C68",
"/  c #FF526E",
"(  c #FF5371",
")  c #FF5A7B",
"_  c #3976A0",
"`  c #7A5E82",
"'  c #6B678E",
"]  c #636C96",
"[  c #64719B",
"{  c #5979A6",
"}  c #707AA7",
"|  c #586D97",
" . c #9B5E82",
".. c #B65E82",
"X. c #976990",
"o. c #B6658A",
"O. c #B66E97",
"+. c #B76E98",
"@. c #B5749F",
"#. c #AA6C94",
"$. c #9F7FAC",
"%. c #AE7BA7",
"&. c #B879A8",
"*. c #FF5F83",
"=. c #FF658B",
"-. c #FF688F",
";. c #FF6C96",
":. c #FF729D",
">. c #FF7DAC",
",. c #FF77A3",
"<. c #2984B5",
"1. c #5881AE",
"2. c #5586B6",
"3. c #6284B2",
"4. c #3DBAFF",
"5. c #3AB4F6",
"6. c #2DB9FF",
"7. c #479ED8",
"8. c #5992C9",
"9. c #6498D0",
"0. c #55A3DF",
"q. c #58ABE7",
"w. c #4DBAFF",
"e. c #45BAFF",
"r. c #53BAFF",
"t. c #5CBAFF",
"y. c #78B0EE",
"u. c #64BBFF",
"i. c #6BBAFF",
"p. c #66B7FD",
"a. c #74BBFF",
"s. c #7DBAFF",
"d. c #75B1F2",
"f. c #69ABE9",
"g. c #AA81AE",
"h. c #B581AE",
"j. c #BA81AE",
"k. c #B685B7",
"l. c #A285B6",
"z. c #FF81AE",
"x. c #FF89BC",
"c. c #FF84B5",
"v. c #B68EC4",
"b. c #BF8CC2",
"n. c #B794CC",
"m. c #B59AD4",
"M. c #AA92C8",
"N. c #87A1DC",
"B. c #96B0EE",
"V. c #82BAFF",
"C. c #8BBAFF",
"Z. c #93BAFF",
"A. c #9CBAFF",
"S. c #86ABE8",
"D. c #B4ACEC",
"F. c #B5A6E4",
"G. c #ACB0EE",
"H. c #A1B0EE",
"J. c #B6B0EE",
"K. c #BBB0EE",
"L. c #A3BAFF",
"P. c #ACBAFF",
"I. c #B6B2F4",
"U. c #B6B6FA",
"Y. c #B5BAFF",
"T. c #BBBAFF",
"R. c #BAB4FB",
"E. c #A7A9EA",
"W. c #FF8DC2",
"Q. c #FF94CC",
"!. c #FF9BD5",
"~. c #FFA1DD",
"^. c #C1B0EE",
"/. c #C3BAFF",
"(. c #CBBAFF",
"). c #D4BAFF",
"_. c #DBBAFF",
"`. c #C0ADEF",
"'. c #FFA4E3",
"]. c #FFACED",
"[. c #FFB0EE",
"{. c #E3BAFF",
"}. c #ECBAFF",
"|. c #FFB2F3",
" X c #FFB6FC",
".X c #F5BBFF",
"XX c #F3BAFF",
"oX c #F9BBFF",
"OX c #FFBBFF",
"+X c #FDBAFF",
"@X c #FEBAFF",
"#X c #FFAEF1",
/* pixels */
"                                                                                                                                ",
"                                                                                                                                ",
"                                                                                                                                ",
"        . + # # # # # # # @ @ @ + @ # % * * = ; ; ; ; ; ; ; ; ; ; = = ; = ; * * * & % @ + o o X o O O + + + @ @ @ @ + .         ",
"      . : < < < < < < : : : ; = * , < r i p s s v v v v v v s s s s s s s a a i i r w : * % @ o @ # % * * = = ; ; ; : * .       ",
"      @ < < < < , , : , : ; ; = = , w t i a a v v v v v s v v s s s s a s a a p i r e , = % # + + # & & * * = ; ; ; ; : O       ",
"      # < < , , : , : : : ; = * ; , e t p a s s v v v v v s s s s a s s s a a p i t e < ; * # @ O @ % & & * = = ; ; ; ; @       ",
"      # < < , , , : : : ; 6 3.q.d.y.B.H.G.J.K.K.^.^.^.^.K.^.K.K.K.K.K.K.J.J.J.G.G.H.B.y.d.q.7._ $ @ # % & * * = = ; ; ; @       ",
"      # < , , , , : ; 1 3.t.r.i.a.V.A.L.Y.Y.T././././.T./.T.T.T.T.T.T.T.T.Y.Y.Y.P.L.A.C.s.u.w.4.5.8 # % & & * * = = ; ; @       ",
"      # , , , , : : 1 f.t.t.(.oXoX.X.X.X.X.X.X.X.X.X.X.X.X.X.XoXoXoXOXOXOXOXOXoXoX.X.X}.}.{._.A.6.6.5 # % & * * * = = = @       ",
"      # : , : : : ; [ p.P.)..X[.x.z.z.z.z.z.z.z.z.z.z.z.z.z.z.z.z.z.c.z.z.z.z.z.z.z.c.z.z.x.#X{.L.w.<.# # & & * * = = = +       ",
"      # : : : ; ; ; 8.t._.OXOX>.J M n n n n n n n n n n n n n n n n n n n n n m n n n m n n B ~. Xt.5.+ @ % & & * * * * @       ",
"      # : : ; ; ; = { r.A.Y.OXOXoX X( n n n n n n n n n n n A ^ ( ( / ^ ! S V m n n n n n n n ;.oXr.4.# + # # & & & * * +       ",
"      @ ; ; ; ; = = - f.a.s.A.P.T.).OXA n n n n n n n n n >.OXOXOXOXOXOXOXOXOXOX].z.V n n n n x.{.r.0.% % @ # # % & & & +       ",
"      @ = = = * * * : 2 ` S.A.L.P.Y.oX) n n n n n n n n K  X(.T.T.T././.(.(.)._.{.}.'.M n n n '.(.i.2.* % % @ @ % % & & O       ",
"      + = = * = ; : , w e r g o.Y.T.oX) n n n n n n n n ;.oXT.T.Y.T.Y.Y.Y.Y.T.Y.Y.Y.OX/ n n m OX/.s.' ; * & & % @ # # % O       ",
"      + & * ; : : < w r t i p F U.(.OXP n n n n n n n n W.}.Y.I.G l l z G Y E k.Y.T.oX:.n n A OXU.C.q < ; = * & & % # @ O       ",
"      @ : : : < w e r t p p a W T.).OXZ n n n n n n n n ].{.Y.&.a a s a s a a a U.Y.oX>.n n ~ oXP.A.c w < , : = = & & & O       ",
"      # < < w e r t i i p a s +.T.{. Xn n n n n n n n N OX).Y...a s s a a s a a D.Y.oXW.n n :.oXP.L.y r e w < , : ; ; = +       ",
"      % e e t t i i p a a s s b./.}.!.n n n n n n n n K  X(.U.G a a a a a a s a F.T.oXOX:.;.oX.XP.E.i i t r e w w < < : @       ",
"      & t t i i p p a s s s v `./..X>.n n n n n n n n )  XT.Y.j a a a a a a s a k.Y.}.}.OXOX}._.P.@.p i i i t r e e e w %       ",
"      * i p p a a s s s s v b /./.OX*.n n n n n n n n >..XY.I.s s a a s a s a a F U.Y.T._._.Y.Y.G.f p p p i i i t t t r &       ",
"      = a a a s s s s s s v H /.(.OXP n n n n n n n n !.}.Y.v.a s a a a a a a a a z k.Y.Y.Y.U.@.f a a a a p p p p i i i *       ",
"      = a a s s s s v v s v W /.). XV n n n n n n n n  X_.U.+.a a a a a a a a a a a s j H F d a a a a a a p a p p p p p *       ",
"      = s s s s v v s v v s &.T.{. Xn n n n n n n n Z  X(.T.R a a a a a a a a a a a a a a a a a s a a s a a a a a a p a =       ",
"      ; v s v s v s v s s v b./.}.Q.n n n n n n n n Q OX/.Y.F a a a a a a a a a a a a a a a s a a a a a a a a a a a a a =       ",
"      ; s v s v s v s v s s R.T.oX,.n n n n n n n n =.OXY.Y.E l z F Y R R R R Y z a a a a a a a a a a a s a a s a a a s =       ",
"      ; v s v v v s s s v j T.T. X) n n n n n n n n >.}.Y.Y.Y.Y.Y.Y.Y.Y.Y.Y.Y.Y.Y.m.k a a a a a a a s a a a a a a s a a =       ",
"      ; s s s s s s s s s G T.(.OXK n n n n n n n n :.}.(./.(.(.(.(.(.(.(.(.(.(.(.Y.I.z a a a a a a a a s a a a a a a a =       ",
"      ; s s s s s s s s s ..T.).OXN n n n n n n n n Z |.oXOXoXOXoXOXOXoXOXOXOXOXXXT.Y.F.a a a a s a a a a a a s a s a a =       ",
"      ; s s s s s a s a s &.Y.{.#Xn n n n n n n n n n M ! / / / ^ L A Z C Z A /  XOX(.Y.z a a a a a a a a a a a s a a s =       ",
"      = s s s s s s s s s m.T.}.W.n n n n n n n n n n n n n n n n n n n n n n n x.OXT.Y.k a a a a a a a a a a a a a a a ;       ",
"      = s s s s s s s s d R.R.oX;.n n n n n n n n n J =.=.) ( / / / ( ( / / ) x.OXXXY.D.a a a a a a a a a a a a a a a a =       ",
"      ; s s a s s s a a k T.T.OX( n n n n n n n n ~ oXoXoXoXoXoXOXOXOXOXOXOXOXOX).(.Y.@.a a a a a a a a a a a a a a a a =       ",
"      = s a a s a s s s H R.(. XJ n n n n n n n n ~.{.Y.T.Y.Y.Y.Y.Y.T.T.T./././.Y.Y.D.h a a a a a a a a a a a a a a a a =       ",
"      = s s s s s s s s o.T._. XB n n n n n n n M oX).Y.Y.Y.Y.Y.Y.Y.Y.Y.Y.Y.Y.Y.I.O.g a a a a p a a p a a a a a a a a a =       ",
"      = a s s s s s a s k.T.{.'.n n n n n n n n J OX(.Y.@.k k k l l l l z l z l a a a a a a a a a a a a a a a a a a a p =       ",
"      = s a a s a s a s F.Y.XXx.n n n n n n n n / OXR.Y.l a a p a a p a d a a a a p a a a p a a a a a a a a a a a p a a =       ",
"      = a a a a s a s d T.T.oX=.n n n n n n n n :.oXY.U.a a a a a a a a a a p a a a a a a a a a a a a a p a p a p p p p *       ",
"      = p a p a a a s z R./. X~ n n n n n n n n Q.}.Y.m.a a a a a a a a a a a a a a a a a a a a a p a p a p p p p i p i *       ",
"      * i i p p p a a Y Y.(.OXA n n n n n n n n  X{.U.&.a a a a a a a a a a a a a d F T z a a a a a a p p p p i i i t t &       ",
"      * t i i i i p p o.Y._. XM n n n n n n n V  X).Y.E a a a a a a a p a a a a T D.Y.P.Y.n.f p p p p p i i t t t r r r &       ",
"      % e r r t i i p M.Y.{.!.n n n n n n n n K  X/.Y.G a a a a a a a a a a d k.Y.Y.).)./.Y.D.h p p i i i t r r e w w < #       ",
"      # < w w e r t t E.P.XX>.n n n n n n n n ) OXT.U.j a a a a a a a a a d %.Y./.).oXoX)./.P.%.p i i t r e w w < : : : @       ",
"      + ; : < < w e u A.L.OX=.n n n n n n n n >..XY.I.a a a a a a a a a a k U.T.OXOX~.!.oX.XP.M.i t t r w w < : ; ; * * O       ",
"      O * * = ; , < D Z.P.OXP n n n n n n n n !.}.Y.v.a a a a a a a p a a E Y.(. X=.n N OX{.P.l.t r e < < : = * & % # # o       ",
"      O % & & * = : q V.U.OXZ n n n n n n n n  X_.T.+.a a a a a a a a a a m.Y.{.'.n n V OX(.A. .r w < , ; * & # # @ @ + X       ",
"      o @ # % & & * ] i./. Xn n n n n n n n Z OX).T.+.s a a a a a a d k E Y.Y.oX-.n n Q OXY.A.D w < : = & % @ + + O o o X       ",
"      O % # # # % & 7.u.).!.n n n n n n n n ! oX(.Y.T.I.J.J.J.J.J.U.Y.T.Y.Y.(.oXZ n n -.oXA.C.u < : = % @ + + + o o O + o       ",
"      + * & & % @ 9 w.r.XX:.n n n n n n n n Q oXT.T.T.Y.Y.Y.Y.Y.Y.Y.Y.T.T./..Xc.n n n W.}.Z.N., ; * % # + + o o O + @ # o       ",
"      + * * * 7 7.e.4.i.oXQ n n n n n n n n N |..X}.}.}.}..X.X.XoXOXoXoXoXoXW.B n n n |.).C.$.= = % @ O O o O + @ # # % O       ",
"      + = = | r.w.s.A.).'.n n n n n n n n n n V =.z.z.z.z.z.z.z.z.,.=.) ~ Z n n n n V OXR.s.0 = % @ O + o O + @ % % & & O       ",
"      @ = 9 t.i.s.}.OXx.V n n n n n n n n n n n n n n n n n n n n n n n n n n n n n Q OXL.a.6 & # O O o O + # % % & & & +       ",
"      @ : 9.t.{.oXoX^ n n n n n n n N C B n n n n n n n n n n n n n n n n n n n n J '.OXV.i.- # + + o O + # # & & & * * +       ",
"      @ ; 9.u..XoXoXoX[.[.[.[.[.|.OXOXOXOXOX|.|.[.[.[.[.[.[.[.[.[.[.[.[.[.[.[.[. XoX}.).i.0.% @ O o o + @ % % & & * * * +       ",
"      # : ' u.u.V.).(./.T.Y.P.P.P.Y./.(.).)._.{.{.{.}.}.}.}.}.}.}.}.}.{.{.{.{._.).(.Z.s.i.9 # O O o O @ # % & & * * * = +       ",
"      @ : > [ i.u.u.u.t.r.t.w.e.t.u.s.Z.L.P.Y.Y.T.T.T.T.T.T.T.Y.Y.Y.Y.Y.Y.P.P.P.A.Z.C.d.0 % @ O o O @ # % & & * * * = = +       ",
"      @ : : : 4 0 } 3.1.1.1.1.1.1.[ 0 U  .%.g.h.k.j.j.h.j.j.h.h.h.h.j.h.h.h.g.g.l.X.I 2 * % O O o O @ # % & & * * = = = +       ",
"      + : : : ; ; ; ; = = = % & & = , w r i p a s s s s s a s a a a a a a p p i t e < : * # O O o + # # % & * * = = = = O       ",
"      . = : : : ; ; ; ; = * * & & = > < r t p a a s s s s s a s a s a a a a p i t e < ; & + + X O @ # % & * * * = = = & .       ",
"        . + @ @ @ @ @ @ + + + + O + @ % & * * = = = ; = ; = ; = = = = ; * * * * & % # @ O o X . X o o O + O + + + + O .         ",
"                                                                                                                                ",
"                                                                                                                                ",
"                                                                                                                                "
};
