/* XPM */
static char *_4f8aa71fa1f4e08d87b61c5c7f49b4dXgZISEAJLW8Qabxh[] = {
/* columns rows colors chars-per-pixel */
"64 64 243 2 ",
"   c #000000",
".  c #0D0B02",
"X  c #0B0A08",
"o  c #110E02",
"O  c #161201",
"+  c #191500",
"@  c #1C1B00",
"#  c #15130C",
"$  c #191813",
"%  c #0D0E10",
"&  c #201C01",
"*  c #211D11",
"=  c #1F2201",
"-  c #1E2C07",
";  c #142E0C",
":  c #242402",
">  c #2B2402",
",  c #2C2D02",
"<  c #2C250E",
"1  c #242707",
"2  c #342B0D",
"3  c #392F0B",
"4  c #342B01",
"5  c #223D0B",
"6  c #233407",
"7  c #3C320B",
"8  c #383403",
"9  c #262110",
"0  c #2C2819",
"q  c #393117",
"w  c #363124",
"e  c #3C3623",
"r  c #3F3822",
"t  c #332F25",
"y  c #423609",
"u  c #453909",
"i  c #483A05",
"p  c #433E12",
"a  c #453C21",
"s  c #493F20",
"d  c #1B4512",
"f  c #19581B",
"g  c #22420D",
"h  c #234B12",
"j  c #255816",
"k  c #38520B",
"l  c #27661B",
"z  c #34711A",
"x  c #267321",
"c  c #297D24",
"v  c #287822",
"b  c #464507",
"n  c #584904",
"m  c #595607",
"M  c #4D421F",
"N  c #4A4417",
"B  c #52461D",
"V  c #56491C",
"C  c #5C4D1B",
"Z  c #524917",
"A  c #5B521A",
"S  c #4B560A",
"D  c #695A03",
"F  c #6A5717",
"G  c #6D5917",
"H  c #645319",
"J  c #695718",
"K  c #6B5C1A",
"L  c #65591A",
"P  c #725D16",
"I  c #59670A",
"U  c #486D15",
"Y  c #686404",
"T  c #786304",
"R  c #6D6319",
"E  c #766015",
"W  c #7B6413",
"Q  c #72631B",
"!  c #7A6A19",
"~  c #7E751A",
"^  c #727908",
"/  c #6C6322",
"(  c #7D7420",
")  c #4D4421",
"_  c #836803",
"`  c #8E710F",
"'  c #8C7300",
"]  c #93750E",
"[  c #97790D",
"{  c #9B7B0C",
"}  c #997D00",
"|  c #806712",
" . c #836A12",
".. c #8A6E10",
"X. c #8B7312",
"o. c #877818",
"O. c #947B11",
"+. c #A07F0A",
"@. c #857B21",
"#. c #2A8426",
"$. c #278829",
"%. c #3E8E21",
"&. c #2B982E",
"*. c #379728",
"=. c #2C9E31",
"-. c #2CA332",
";. c #2EAC35",
":. c #2EB137",
">. c #33B336",
",. c #3AB534",
"<. c #3CB638",
"1. c #30AC34",
"2. c #71920F",
"3. c #6FA91B",
"4. c #4EBD2E",
"5. c #47B32F",
"6. c #57BD2C",
"7. c #44B932",
"8. c #4CBC35",
"9. c #52BE34",
"0. c #50AD2B",
"q. c #70B029",
"w. c #568011",
"e. c #79C11E",
"r. c #5BC12C",
"t. c #59C131",
"y. c #67C62A",
"u. c #78CC26",
"i. c #79CD34",
"p. c #68C734",
"a. c #9D810A",
"s. c #8E8719",
"d. c #978617",
"f. c #9A951C",
"g. c #889209",
"h. c #AE8906",
"j. c #A4820A",
"k. c #AA8608",
"l. c #AB8B0A",
"z. c #A3880A",
"x. c #B48D06",
"c. c #B18F09",
"v. c #AC940B",
"b. c #B59105",
"n. c #BB9304",
"m. c #BD9A05",
"M. c #B49309",
"N. c #B79B0A",
"B. c #A28C11",
"V. c #A49215",
"C. c #A89917",
"Z. c #89AD16",
"A. c #BCA40C",
"S. c #A7A418",
"D. c #B7A816",
"F. c #BFBF14",
"G. c #BDBD1A",
"H. c #B7B318",
"J. c #A6AE11",
"K. c #8A8325",
"L. c #989124",
"P. c #A49C24",
"I. c #ACA421",
"U. c #B4AE24",
"Y. c #BAB625",
"T. c #91AF2E",
"R. c #C19603",
"E. c #C49B02",
"W. c #CC9E00",
"Q. c #C4A205",
"!. c #CEA200",
"~. c #C5A908",
"^. c #D0A500",
"/. c #D3AB00",
"(. c #CCB408",
"). c #CDB408",
"_. c #D5B201",
"`. c #DBBB00",
"'. c #D5B905",
"]. c #C1AF11",
"[. c #C6BE1B",
"{. c #C4BE23",
"}. c #8DD51E",
"|. c #9AD91C",
" X c #86C91C",
".X c #A6DE1B",
"XX c #AFCB0C",
"oX c #BAE515",
"OX c #ADE116",
"+X c #86D225",
"@X c #98D926",
"#X c #81D037",
"$X c #92D633",
"%X c #A6DD24",
"&X c #A5D733",
"*X c #ADE022",
"=X c #B7E425",
"-X c #DDC202",
";X c #D9C80A",
":X c #D6D103",
">X c #D5CA14",
",X c #DCD516",
"<X c #C8CA13",
"1X c #E4CC00",
"2X c #E1C700",
"3X c #E9D400",
"4X c #ECDB01",
"5X c #E4D507",
"6X c #E2DB16",
"7X c #CBEC0E",
"8X c #DAF10B",
"9X c #C5E911",
"0X c #D7EC15",
"qX c #D5EF0F",
"wX c #EFE100",
"eX c #E7E10D",
"rX c #F1E500",
"tX c #F4EC01",
"yX c #F5ED0F",
"uX c #E7F608",
"iX c #FAF500",
"pX c #FFFE01",
"aX c #FFFF0C",
"sX c #F6F605",
"dX c #EEEA15",
"fX c #E9E517",
"gX c #F1ED17",
"hX c #FEFE13",
"jX c #FEFE1B",
"kX c #F5F51A",
"lX c #E9F715",
"zX c #D3CE25",
"xX c #DAD723",
"cX c #CAC72A",
"vX c #D2EE2A",
"bX c #D0ED2C",
"nX c #E8E629",
"mX c #FEFE24",
"MX c #FEFE2B",
"NX c #F6F926",
"BX c #FEFE33",
"VX c #F4F635",
"CX c #E9EF2F",
/* pixels */
"                                                                                                                                ",
"                                                                                                                                ",
"                                                                                                                                ",
"        . # 3 < $ 9 9 $ * 2 y 2 $ < y 2 2 u y 2 < y u < 7 < u 7 2 9 3 3 u 3 2 < 3 y y u 7 < 3 < 2 y b A ~ H.Y.cXXX<X].Z         ",
"      o q G B C J w e ) B s H E H C | W J  .X.G B G X.C  .C [ E F s | P ] F H B P | ..] G G  .P K Q @.{.CXBXBXbX#X8.>.>.l       ",
"      # P a P H C H s r a V F W P M J { H ..j.] L E ] Q | K k.| F V ] | W F H H { | j.] V ..P Q o.L.Y.CXBXVX#X:.:.:.:.<.S.      ",
"      < ) P B P G H C V s s B W [ ! R O.X. .l.B.o.o.A.o.o.! b.] G J [ | P  .P P +...j.E P `  .X.d.U.VXBXCX8.:.:.:.:.;.&XG.      ",
"      9 a C W C W | K B C H L Q d.v.@.C.].C.A.(.D.Y.5X>XI.L.Q.j.P P [ | ] { F  .` x.h.J +...X.d.U.CXMXbX>.:.:.:.:.:.8.CXs.      ",
"      $ V a G | H W X. .A Q K.f.H.;X,XxXdXdXgXiXyXNXhXpXnXU._.b.| W ` j.[  .J n.[ R.[  .[ O.B.D.xXMXZ.:.:.;.#.x q.q.T.I.M       ",
"      9 e C a E  .W X.a.V.L.{.nXNXhXaXmXjXpXjXaXpXjXkXuXjXfX;XQ.]  ...R.{ P ` R.h.R.P n.+.B.D.zXCXU -.:.x 1 + = L.K.K./ p       ",
"      < w ) V )  .{ d.A.;XdXNXMXmXmXaXaXmXaXjXpXpXlX9..XjXjX5X'.j...+.E.[ ` [ h.W.n.[ h.l.N.[.nXb =.:.v = @ # R / K L C 7       ",
"      < J w V V L d.].6XhXaXjXmXNXbXoX|.@X@X.X.XoX9.:.u.jXpXyX`.l.] x.x.n.| R.n.W...W.x.N.].xXb c >.t.J.U./ P / C / V K $       ",
"      9 J J V L o.P.fXaXaXaXoXp.>.:.:.:.:.:.:.:.>.:.:.,.jXpXhX1XN.j.m.n.x.[ W.E.R.+.R.E.~.{.S j :.>.bXkXY.K.| C E J C J <       ",
"      9 e J  .@.L.xXmXjX0X9.:.:.:.:.:.:.:.:.:.:.:.:.:.:.7XaXhX3XQ.l.E.R.h.x.W.W.+.W.W.^.A.R = -.:.9.jXnXS.o.K E W H E C 2       ",
"      < s C / S.6XBXmX@X:.:.:.:.:.:.:.:.:.:.:.:.:.:.:.:.}.aXaXrX).b.!.W.x.R.W.W.+.!.!.^.s.= j :.:.=XMX>XV. . . .W J H a <       ",
"      < H Q K.cXmXhXi.:.:.:.:.:.:.:.:.:.:.:.:.:.:.:.:.:.r.aXaXiX'.Q.!.!.x.W.W.x.W.!.^.M.: = =.:.,.MXkXH.B.{  . .P C V M <       ",
"      0 ! s.{.NXxX0.>.>.-.c j g - - = = - 6 5 $.:.:.:.:.:.uXaXpX2X/.^.W.W.W.W.n.!.!.Q.n = g :.:.+XhXfX~.B.[ ..E C C C G 3       ",
"      u d.D.gXH.v :.1.l = @ + + + + + + O @ = &.:.:.:.:.:.oXpXpX3X`.^.!.W.W.E.W.!.!.B.: = x :.:.0XjX5XA.k.] P H H W W P <       ",
"      7 V.6XS.h :.:.h = 1 8 4 > 4 4 > @ @ @ - ;.:.:.:.:.:.u.pXpXtX`./.!.W.W.W.W.!.m.T @ = -.:.4.aXiX-XN.] E P W ] W H G 2       ",
"      N I.f.6 -.:.q.<XdXH.d.m.{ j.E.!.b.@ @ h :.:.:.:.:.:.7.pXpXiX1X/.^.W.!.W.W.E.R.8 @ g :.:.}.pXrX).O.W  .j.` E W W H <       ",
"      A L.= c :.:.qXaXdX).B.X.j.x.k.^.' + = l :.-.-.:.:.:.:.8XpXpX3X_.^.W.W.W.^.R.c.@ @ z :.:.8XpX:XV.a.b.k.] ..` J M s 9       ",
"      D 1 5 :.:.:.jXaXiX'.E.m.j.{ m.b.n @ @ &.:.c #.:.:.:.:.|.pXpXrX`.^.^.W.W.W./.T @ = &.:.7.pXhX'.Q.E.j.{ { G V M B H <       ",
"      @ @ x :.:.:.NXmXjX;X/.!.!.R.x.Q.4 + = ;.:.j j :.:.:.:.y.pXpXiX2X/.!.W.!.!./.8 @ 6 :.:.+XpXyX-XE.n.h.E C C G J W P 7       ",
"      . = =.:.:.:.0XpXkX>XC.R.!.W.!.m.+ @ 2.:.:.6 5 :.:.:.:.>.sXpXiX1X/.!.!.W.!.Q.@ = k :.:.oXpXwX'.M. .H W E [ ..` ` W y       ",
"      . 1 :.:.:.:.@XaXpXrX~.j.j.!.^.} + @  X;.-.= = -.:.:.:.:.9XpXpX4X'.^.^.W.^.' @ & %.>.>.sXpX;XV...[ h.+.h.k.] { | H <       ",
"      . d :.:.:.:.t.jXaXiX2X/.E.h.b.D @ b y.;.c = = $.:.:.:.:.}.pXpXrX`./.W.W.^.n @ : 5.:.r.aXyX'.E.W.W.W.R.x...P G H H 3       ",
"      . 5 :.:.:.:.:.lXjXgX).E.^.W.^.8 @ 2.,.:.j = = l ;.:.:.:.4.pXpXiX2X/.W.W./., @ S :.:.|.pXtX-X/.^.x.[ ` P ` { | H H <       ",
"      . - :.:.:.:.:.|.pXtX'.Q.R.W.W.@ @ 2.:.:.6 = = g :.:.:.:.:.uXpXpX3X_.^.^.n.@ : U :.:.7XpX4X~.M.+.x.n...| | P P P  .u       ",
"      . O -.>.:.:.:.8.hX>XQ.M.m.!.} = = e.:.,.= @ @ = ;.:.:.:.:..XpXpXrX`.^.^.' @ @ 3.:.>.sXpX1X~.n.k.+.+.R.R.+.| P W P 3       ",
"      . . c ;.>.:.<.9X6X(.Q.R.W.W.D = b t.:.u.8 = @ = $.:.:.:.:.u.pXpXtX-X/.^.n @ , 6.:.y.pXiX2X/.W.R.n.h.[ | | ] ] ` W 3       ",
"        . d :.1.y.0X>XD.N.M.E.W./.8 @ I :.:.OXY @ + @ l :.:.:.:.,.pXpXpX1X/./.4 @ I >.:.|.pXtX-XE.n.h.+.] ] ` ..| P P G 3       ",
"      . . . &.3.2X;X/.^.!.!.!.^.m.@ @ 2.:.:.8XJ.@ @ @ g :.:.:.:.:.7XpXpX4X`.E.& @ 2.:.:.9XpXwX'.^.^.W.W.W.W.W.E.R.x.j.[ u       ",
"        X o m v.A.m.E.W.!.!.!.^.' @ & 6.:.4.pX:X@ + + = ;.:.:.:.:.}.pXpXtX-Xa.+ = 3.>.>.sXpX3X_.E.b.x.j.+.[ ` | P P F F 2       ",
"      X # W { k.h.c.m.E.W.!.!.^.n @ b ,.:.}.pXrX> + + @ &.:.:.:.:.4.pXpXiX3XT @ 1 u.:.r.pXiX-X^.!.Q.R.b.x.k.+.[ ` | P C <       ",
"      > ] { j.l.k.x.E.W.W.n.W./.: : U :.:.qXpX3Xn O + + l ;.:.:.:.:.uXpXpXwXi @ Y 7.:.}.pXtX`.m.+.] ..[ [ ` ` +.+.h.h.+.i       ",
"      u ] [ ..W ` { +.j.x.!.!.h.@ @ *.>.5.pXiX1X_ @ O + 5 ;.:.:.:.:.|.pXpXtX= @ 2.:.:.oXpXwX`./.W.W.R.+...` P C B s V C 2       ",
"      3 G F P ] k.+.{ x.h.b./.D @ 6 >.:..XpX4X`.h.+ O + @ 1.;.:.:.:.r.pXpX:X@ = Z.:.:.sXpX3X~.M.h.n.R.R.W.x.h.+.| H C C <       ",
"      y E P W ] |  .j.{ x.m.N., = k :.>.uXiX1X_.^.: + O + c :.:.:.:.:.uXpXg.= : u.:.r.pXiX;XE.R.n.h.{  ...+.{ +.x.+.| W 7       ",
"      2 H H  .W W j. . .[ m.v.@ = *.:.u.pXrX`./.W.n + O + j :.:.:.:.:.|.pXY = m 6.:.+XpXtX'.m.x.{ ` j.x.x.| P C G | W P u       ",
"      2 H W  .H P E { E.M.Q.Y = g >.>.8XiX1X_.^.W.' + + + 1 ;.:.:.:.:.4.pX, = g.:.;.oXpXrX'.R.[ +.x.[ P | ` n.n.| C B V <       ",
"      < L L K o.c.O.B.v._.2X, : v >.u.pX4X`./.!.W.R.& O + + #.;.:.:.:.:.XX= = Z.:.:.uXpX4X`.^.W.+.P ` n.[ P V P W +.+.P 2       ",
"      7 ~ V.V.C.C.D.'.2X,XS.@ 6 1.>.uXiX-X_.!.!.W.W.i + O + j ;.:.:.:.:.%.= : }.:.7.pXpX1X_.!.W.!.n.` H P x.k.G C B C P 3       ",
"      m D.{.xXdXeXsXgXNXaXm = #.>.@XsX5X_.^.!.!.W.W._ O + + & -.:.:.:.:.1.: m r.:.u.pXiX2X/.^.W.!.W.n.+.| C J ` j.G B s <       ",
"      ~ nXjXjXhXjXmXjXpX:X@ j :.r.sX5X'.^.!.!.!.W.W.+.O O O & z :.:.:.:.>.j 2.:.:..XpXtX-X^.W.E.R.W.W.n.+. .G B V P [ G 2       ",
"      H.jXjXmXBXmXaXaXaXY j ;.>.8XeX;X/.m.!.W.W.R.R.W.y + O + 5 :.:.:.:.:.-.Z.;.:.7XaXrX'.E.n.W.n.h.x.E.h.{ ` P C M a J 3       ",
"      XX=X#X$X%X*X*X@Xu.-.:.:.oXgX-X/.c.Q.!.E.R.R.R.W._ + O + + &.:.:.:.:.:.4.:.:.sXpX5X~.W.h.h.W.+.[ +.j.h.]  .W H s s $       ",
"      J.<.:.;.:.:.:.:.:.:.:.%XgX;X_.j.b.R.E.R.h.x.W.W.R.& + O O j :.:.:.:.:.:.:.r.pXaX;X~.c.b.+.+.E.+.` ..X.{ ] W W H C *       ",
"      *.:.:.:.:.:.:.:.:.:.%XfX>X~.O.j.x.E.h.j.x.+.W.W.W.n + O O @ -.:.:.:.:.:.:.u.pXaX,Xv.m.+.j.`  .R.+...W W ....W G G <       ",
"    f :.:.:.:.:.:.:.>.9.zXzX].N.X.[ { b.k.n.+.[ R.W.W.W.+.O O o O l :.:.:.:.:.:.%XhXaXeX].o.x.X.{  .| +.+.W G P P  . .K q       ",
"  $ ;.:.;.-.&.$.v f U [.I.S.B. ...] j.b.+.` h.+.h.W.W.W.W.4 + o O + =.:.:.:.:.:.*XjXaXhX[.v.! k.| ..| P ..[ P P K Q o. .n       ",
"      X o O o o O b K.s.d.O.E W | ` E...[ ` | x.+.R.R.W.W._ + o O O h :.:.:.:.:.5.jXjXhXdXD.d.! +.P | F G W ..E o.@.P.P.R       ",
"        . X X 9 Z / E ! W L G E | x...{ P ] ` +.+.h.R.W.W.+.3 o O o O #.:.:.:.:.:.$XmXjXjX6XC.o.P ..F P F K K X.V.U.cXnXs.      ",
"      % 7 0 H H ) J P F C H P E ] { W P ..P +. .h.+.R.R.W.[ _ o O . O = -.:.:.:.:.>.vXmXjXjXzXC. .| | J J L ! @.Y.kXbXBXXX      ",
"      9 r C C e C J H Z H J J W j.F  .F W P  .[ [ +.R.n.W.| +.& O o O + 5 :.:.:.:.:.t.NXmXjXmXzXP.@.o. ./ Q @.U.nXMXt.CX[.      ",
"      < a V w V H V B H C C H [ F W H W H ] P | ` +.k.W.n.P [ H & . o O O d :.:.:.:.:.p.MXmXmXmXnXY.K.L.d.L.U.nXmXbX;.&X[.      ",
"      $ B w ) H M B V B Z C ..W F H H H H P W ] ` ` +.W.[ | ] H _ o O o O O f :.:.:.:.:.i.MXmXMXBXNXnXcXcXxXCXH.jX9.;.i.XX      ",
"      * t a C a B s a M H P | C G M G B | G W W P { +.E.W  . .C j.u + o O o o j >.:.:.:.:.i.MXMXMXMXMXMXBXBXS.m @X:.:.<.G.      ",
"      * e C a M a a B C C P B C V C C H J H P P ..{ { j.J ` P C { G i o o o o o I 5.:.:.:.;.9.bXMXBXBXBXBXBX7 l :.:.:.:.Z.      ",
"      % V w s e w V M a G H C C a C a J C J W P |  .` [ H ` H V ..J j.2 o . .   . Y 3.>.:.;.;.:.p.=XCXMXVXT.$.;.:.:.:.8.s.      ",
"      . 0 s w w B e a F F a M a B B C H C H H J P P +.] H  .B V | J { | n o . o X . u o.3.5.;.:.:.:.:.:.:.:.:.:.:.6.&XY.7       ",
"        . % $ 9 $ < < < * 2 < * 9 $ < 2 < 2 2 2 y y n u < 7 9 < 7 2 u y i & . X     . @ 8 Z S U c #.#.$.#.x f d 2 2.L 1         ",
"                                                                        X                                                       ",
"                                                                                                                                ",
"                                                                                                                                "
};
