/* XPM */
static char *_64111a106474d6f8bcb980d27bfbf0cKEvZnq3AWFNpI44n[] = {
/* columns rows colors chars-per-pixel */
"64 64 238 2 ",
"   c #000000",
".  c #080706",
"X  c #0D0C0A",
"o  c #090807",
"O  c #110F0D",
"+  c #13110E",
"@  c #1E110F",
"#  c #1A1512",
"$  c #1A1A17",
"%  c #2C0101",
"&  c #2B0D09",
"*  c #260806",
"=  c #320101",
"-  c #310E09",
";  c #390A06",
":  c #29160E",
">  c #35150C",
",  c #221E19",
"<  c #271A14",
"1  c #331C14",
"2  c #17211E",
"3  c #2D2215",
"4  c #26271A",
"5  c #27281C",
"6  c #2B2B1C",
"7  c #2B271B",
"8  c #332C1B",
"9  c #382A18",
"0  c #2F301E",
"q  c #32321E",
"w  c #3A321D",
"e  c #3A3017",
"r  c #0C2E29",
"t  c #0A2925",
"y  c #132622",
"u  c #0A322C",
"i  c #133C32",
"p  c #0E3931",
"a  c #2D2B22",
"s  c #322D24",
"d  c #352F28",
"f  c #323222",
"g  c #3B3322",
"h  c #353129",
"j  c #3B362D",
"k  c #3B3D28",
"l  c #3D3830",
"z  c #283729",
"x  c #540B00",
"c  c #4A180A",
"v  c #531105",
"b  c #661500",
"n  c #751902",
"m  c #600E00",
"M  c #42250E",
"N  c #56250E",
"B  c #492A15",
"V  c #552D13",
"C  c #5B2B11",
"Z  c #453218",
"A  c #54321A",
"S  c #593216",
"D  c #5B310F",
"F  c #67290B",
"G  c #762B09",
"H  c #7C320E",
"J  c #74310D",
"K  c #672E11",
"L  c #653313",
"P  c #663818",
"I  c #773113",
"U  c #782C15",
"Y  c #413529",
"T  c #433D34",
"R  c #4C2922",
"E  c #0C443A",
"W  c #1E493A",
"Q  c #214A39",
"!  c #2A543D",
"~  c #3B4A34",
"^  c #454135",
"/  c #494137",
"(  c #4D453A",
")  c #464D36",
"_  c #50473B",
"`  c #52493D",
"'  c #505033",
"]  c #774E29",
"[  c #795228",
"{  c #6B542E",
"}  c #756434",
"|  c #275C44",
" . c #395F42",
".. c #38674B",
"X. c #1A5542",
"o. c #564D41",
"O. c #584E41",
"+. c #5B5245",
"@. c #5F5548",
"#. c #4F5C4E",
"$. c #645A4C",
"%. c #6B5F4F",
"&. c #605547",
"*. c #6A5F51",
"=. c #446948",
"-. c #55764D",
";. c #577B52",
":. c #51724E",
">. c #66754C",
",. c #6D6353",
"<. c #6A6D51",
"1. c #726655",
"2. c #756A5B",
"3. c #7A6E5D",
"4. c #746757",
"5. c #7D705E",
"6. c #797C5C",
"7. c #647350",
"8. c #7E7160",
"9. c #831D00",
"0. c #A81800",
"q. c #BB1702",
"w. c #822E09",
"e. c #892704",
"r. c #942D03",
"t. c #9C2B02",
"y. c #9B2300",
"u. c #84340C",
"i. c #8C330D",
"p. c #983309",
"a. c #823511",
"s. c #993B12",
"d. c #A32B00",
"f. c #AB2D00",
"g. c #AA2701",
"h. c #B32D01",
"j. c #B82602",
"k. c #A33205",
"l. c #A93404",
"z. c #B43101",
"x. c #BC3200",
"c. c #B63908",
"v. c #AB3717",
"b. c #B73615",
"n. c #933B23",
"m. c #B13A24",
"M. c #C51802",
"N. c #D91F05",
"B. c #CB2C03",
"V. c #C92704",
"C. c #DC2305",
"Z. c #D32A03",
"A. c #D72607",
"S. c #C33300",
"D. c #CA3400",
"F. c #C63D0D",
"G. c #D53301",
"H. c #CC3D18",
"J. c #E12205",
"K. c #97401A",
"L. c #AE4B18",
"P. c #874A28",
"I. c #965A2B",
"U. c #96502E",
"Y. c #A5562A",
"T. c #B05132",
"R. c #9E6532",
"E. c #8B703C",
"W. c #AE6D36",
"Q. c #C54A17",
"!. c #CA4825",
"~. c #C45439",
"^. c #CA482C",
"/. c #C36139",
"(. c #9C5F43",
"). c #A85843",
"_. c #BC5E45",
"`. c #8C6B58",
"'. c #80725F",
"]. c #957A54",
"[. c #946E4A",
"{. c #A26747",
"}. c #B76848",
"|. c #A96B54",
" X c #A87459",
".X c #B8795A",
"XX c #AE754D",
"oX c #837563",
"OX c #867966",
"+X c #887A67",
"@X c #8C7D69",
"#X c #8A7664",
"$X c #967863",
"%X c #A87B63",
"&X c #B17B62",
"*X c #C66349",
"=X c #5C8459",
"-X c #658557",
";X c #77895B",
":X c #78975E",
">X c #7F8560",
",X c #878B5A",
"<X c #8F8A50",
"1X c #8A8C66",
"2X c #8F806B",
"3X c #888866",
"4X c #93836D",
"5X c #96876A",
"6X c #899366",
"7X c #839A63",
"8X c #889764",
"9X c #959C6D",
"0X c #9C996A",
"qX c #968670",
"wX c #988770",
"eX c #9E8C75",
"rX c #9B8A73",
"tX c #978B71",
"yX c #9A9372",
"uX c #9C9A74",
"iX c #A7836A",
"pX c #A18E76",
"aX c #A08F78",
"sX c #AD8D74",
"dX c #A29077",
"fX c #A59379",
"gX c #A9957B",
"hX c #AC997E",
"jX c #A69877",
"kX c #B49777",
"lX c #AD8E6D",
"zX c #8AA566",
"xX c #94A36A",
"cX c #99B16F",
"vX c #A1A078",
"bX c #AF9B81",
"nX c #B29D82",
"mX c #B5A084",
/* pixels */
"                                                                                                                                ",
"                                                                                                                                ",
"                                                                                                                                ",
"                                                                                                                                ",
"                          + , a j T T _ ` ` _ _ _ ` _ _ _ _ ( ( ` _ ( ( ( _ _ ( _ O._ ( / / j d s T s .                         ",
"                    $ T %.3.oX+X@X@X@XwX5X4X4X5X5X4X4X4X4X4XqX@X4X@X@X2X4X@X4X4X@X4X4X@X@X@X+XOX+X@X@X2.( ,                     ",
"                O ` 2.#X@X@X4X5XwXeXaXaXrXrXpXiX&X X.X&X&XiXsXeXrXaXrXrXwXwXwX5XqXqXqX4X5XqX@X4X4XqXqXwX5XOX&.+                 ",
"              # $.oX@X@X@X@X4XwXwXwXeXiXT.H.A.Z.A.V.A.B.B.B.V.S.Q.T.}.iXfXgXaXrXrXrXwXqXqXqX4X4X5XqXwXwXwXwX4X1.$               ",
"            X $.oXOX@X@X@X@X4X5XqXtX{.x.x.x.z.p.k.p.p.u.H H H I F J i.z.L..XgXsXaXqXqXeXwXqXqX@XqXqXrXwXwXwXrXqX4.+             ",
"            o.8.@X@X4X@X@X4X@X4XtXR.n Y g g h f f h g f h h g s q f q e L l.W.bXbXeXqXqXrX5XqXqXqXrXqXqX5XrXrXaX5XO..           ",
"          $ 2.+X@X+X@X4X4X4XqX4XE.x 8 f q f q q f f q q q f f f f f f f f g k.T.bXfXaXeXeXrXrXrXrXrXwXwXqXwXrXrXrX#Xa           ",
"          T 3.OX@X@X@X4X2X4XqX,Xb - 6 6 q q q q f f f f f f f f f q q f f g Z Z.~.gXaXeXeXrXrXdXrXwXwXqXqXqXrXrXaX5XO..         ",
"        . @.8.+X@X@X@X@X@X4X1X} % 1 6 q f 0 f f q q q q q q q f f f A L u.l.S.C.N.~.gXfXrXrXrXrXrXrXrXqX5XwXrXqXeXrX#X,         ",
"        + *.8.OX+X@X@X+X+X@X3XB = 7 q 0 0 q 6 s q q f 8 3 3 B I i.z.S.S.D.G.J.J.J.J.^.jXbXgXdXdXrXrXrXrXrXrXrXrXwXeX+Xd         ",
"        , *.8.oXoXoXoX+X#X@X3Xx ; s f Z V V S S S ' ;.>.[.W.Y.F.B.B.Z.Z.G.G.D.D.V.D.D.!.gXhXgXdXpXeXrXaXrXrXrXrXwXwX+Xd         ",
"        a 2.8.8.oX8.oXoX+X#X`.j.h.h.z.z.x.x.S.x.<XzX8X9X9XjXlXpX X~.Q.S.g.y.w.J V g g u.Q.kXbXgXpXpXaXaXrXrXrXqX5X4X+Xj         ",
"        a 4.8.8.8.oX5.oXOX+Xm.q.M.C.B.S.S.D.A.%XeXwXpXeXpXdXaXpXdXyXX.u < = = > 8 f f g H Q.sXbXdXpXaXeXrXrXrX5XwXqX@X`         ",
"        d 2.8.8.5.oXOXOX+X$Xq.M.N.Z.S.z.d.p.iXeXrXrXeXpXdXdXgXdXdXfXxX-XX.u < = = > f w w I !.gXgXdXeXeXeXrXrXrXqX4X@X@.        ",
"        j 2.5.8.5.oXOX+X+X).q.M.b.U R w g ..uXqXwXrXpXdXjXdXgXdXfXdXfXuXcX:X;.:.I 9.G i.u.p.A.}.gXgXeXwXrXeXrXrXwXqX4X_         ",
"        T 2.8.8.oXoXOX+X@XT.q.M.j.x.S.x.L.uXeXrXrXwXpXdXdXgXgXgXgXdXdXfXdXuX9XxXxXW.D.D.S.D.Z.A.sXfXdXrXrXrXrXrXwXrX4X_         ",
"        T 2.8.8.oX+X+X@X@XU.j.h.z.x.x.x..XgXrXpXrXeXrXdXfXfXgXgXfXdXdXdXfXdXdXdXpXyXI.g.g.l.x.S.}.gXjXrXrXrXrXwXrXrXwX`         ",
"        T 3.oX8.OX+X@X4X5X{ x N D D S I 0XgXpXpXpXpXpXdXfXdXjXgXgXfXdXfXdXdXdXrXwX0X| & = ; f Z Y.hXgXrXwXrXrXwXwXpXrX1.        ",
"        T 8.8.oXOX@X@X@X6Xk = - s f f Z 9XgXpXpXaXpXdXfXsXfXgXgXgXdXdXdXdXrXeXrXtXeXzXp = = 9 f P.vXhXrXeXrXrXwXwXrXrXoXa       ",
"        ( 8.oXoXOX@X@X@X6X~ = - f f h A <XfXpXpXdXaXdXdXjXfXfXgXgXdXeXdXrXrXrXrXqXqXzX;.# = ; g { xXdXrXrXwXrXrXwXwXwXoX#       ",
"        o.2.3.OXOX+X@X4X6X~ % % f f f Z W.uXgXyXaXaXaXdXdXgXgXfXfXdXdXdXeXeXeXwXrXwXeXzXW = = 1 } vXeXrXwXqXrXwXwXwXrX'.O       ",
"        l 2.8.8.OX+X@X@X6X=.% = q f s s s.lXgXfXaXaXdXdXdXgXgXgXfXdXdXdXeXeXeXeXpXrXeX9X-X$ = = [.jXeXrXrXrXrXrXwXrXwX2..       ",
"        l 2.8.OXOX+X@X@X3X:.% % 7 f f f V H.lXgXgXfXpXpXdXfXgXgXgXfXfXfXaXpXwXeXpXpXrXpX9X:Xs.g.XXuXrXrXrXrXrXrXrXrX5X,.        ",
"        j 2.3.8.8.OX+X+XOX>XN x N I H I i.A.J.*XkXgXgXdXpXdXdXgXgXfXfXfXdXpXyXeXrXrXaXaXfXyX|.M.|.bXaXrXrXrXrXqXrXrXwXO.        ",
"        j ,.2.8.8.OX@X@X+X@X).g.j.S.D.B.Z.N.J.J.A.~.&XkXnXbXkXhXgXgXgXjXdXpXpXrXrXpXrXpXeXrXaXT.|.eXrXeXrXrXrXrXwXpXwX,..       ",
"        l 4.2.3.8.8.8.8.8.@X@Xq.q.V.B.Z.A.C.C.C.J.J.J.A.!._.lXkXmXnXhXgXdXpXpXwXrXaXaXrXrXeXwXwX$XrXeXrXrXwXwXwXwXpXpX3.O       ",
"        l 4.2.2.8.8.8.8.+X@X2X(.h.h.z.x.x.x.x.x.S.x.S.S.D.l.z.D.Q./..XkXkXgXaXeXeXeXrXeXrXrXwX4XqXqXtXrXwXrXrXwXwXpXrX%.        ",
"        j ,.2.2.2.2.3.8.8.@X@X:.$ = = > w s g g j g g g g f g g D u.l.S.Q.}.sXfXaXrXrXwXrXwXqXqXqX5XqXqXwXwX5X5XwXwXrX,.        ",
"        l ,.2.2.2.2.3.8.8.OX@X3X| 2 = = - 8 q q f q e f q w f q k q k w L p.G.T.iXeXaXrXrXwXqXqXqX4XqXqXqXqX4XwXwXwXrX3..       ",
"        l ,.2.2.3.3.8.8.OXOX+X@X7X..u * = % 3 f f f f f q q q k f f f q w Z p.C.V.|.aXaXwXwX@XqX@XqXqX4X5XwXqX@XqXwXwX1.        ",
"    .   o.,.3.8.8.8.8.oXoXOX@X@X3X7X=XE $ % % & 3 0 f f k f g R P i.c.x.S.x.x.S.V.A.}.dXfXqX@XqX@XqX4X4XqX4X4X4X4XwXwX%.        ",
"    . . l ,.3.8.8.8.8.oXOX+X+X@X@X@X6X:X| u # * % % > S H k.x.D.D.D.D.D.S.S.x.h.h.l.h. XaXeX@X@X4X4X4X4XqX4X4X4X4XwXrX,.        ",
"        l 2.8.8.OX8.OXOX+X+X+X+X@X@X@X1X7X=X ...-.E.L.z.x.S.S.D.D.S.p.H L S Z w s 0 Z k.wXeXwX@X@XqX4XqX4X4X4X4X4XrXrX1..       ",
"        l 2.8.OXOX8.OXOX#XoXoX+X@X+X@X@XqX5X1X6X1X1X3X5XR.e.n m c 8 f q q f q s f a f A L.eXrX@X@X@X4X4XwX@X4X@XqXwXwX$.        ",
"        l 8.8.OX8.8.OXOXoX#X`.oXqX@X@X@X@X@X@X4X@X@X5XwX;.E r # = = - 1 f f a f f f q f H [.qX@X+X@X@XqX4X4X@X4X4XwXqX_         ",
"        T 8.OXOX+XOXOX+XoX`.q.U.@X@X#XoX@X@X@X@XqX5XrXrXyX8X=X| p 2 * = % 1 q 0 a q 6 q w v.qXqX@X+X@X@X4X@X4X4X5XwX5X`         ",
"        T oXoX+XOX@X+XOXOX'.q.0.m.#X@X@X@X@X@X@XqXqXqXqXrXrX9XxX:X=.E y ; x v V L J J w.t.j. XqX@X+X+X@X4X4X4X4XqXqX4X`         ",
"        / 8.oX8.8.OXOXOX#X2.; % 9.v.@X@X@X@X@X@X@XqXqXqXrXrXrXrXyXzXzXzX7XL.z.z.h.z.x.h.l.j.T.wXwX@X@X@X@X@X@X4X@XqX4X`         ",
"        / 8.oXoX8.@X@X8.#X`.9.9.d.q.|.qXqX@X@X@XqX@XqXqXqXrXqXrXrXtXrXwX5X1XL.l.f.d.t.p.w.H v.rXrX@X@X@X@X4X@X4XqX4X@X`         ",
"        T 8.+X8.8.OX@X@X+XoXt.t.d.g.v.@XbXqX@XqX@XqX@X@X5XqXqXwXqXrXtXwX4X1XW % = 3 f 8 8 6 U  XrX@X+X@X+X@X4X4X4X4X@X&.        ",
"        / 8.OXoX+X+X+XOXOX>XS b b K H {.@XrX@XqXqX@X@X@X@X4XqXqX5XqXqX4X4X2X:.# % > V K w.r.h.).rX@X@X+X+X@X@X4X4X4X5X,..       ",
"        T 8.oXoX8.@X@XOXOX>Xz % % 7 8 p.].qXqXqXqX@XqXqXqX@X@XqX4X4X4X4X2X+X1X[ y.f.f.f.f.f.j.T.rXqXOX+X+X+X4X4X4X4X4X%.        ",
"        l oXOXoXOX+X+X+XOX3X..@ * & 6 B t.Y.%XbXwXqX@X4X@XqX2XqX@X4X@X@X+X@X+XR.l.l.d.d.r.w.K s.tXqXOX+X+X+X@X@X@XwX4X/         ",
"        T oXOXoX8.OX+X+XOX8.;Xy % % 7 6 s U q.m.%XqXwX4XqX@XqX2X@X@X4X+X+X+X3XP.n b B q 6 0 6 L 3X@XOX+X@X@X@X@X4X4X+XO.        ",
"        s oX+X+X+X+X+X+X+X+X>X .& * * 6 B F j.M.V.).tXqXqX2X@X@X@X@X@X+X+X#X;X9 % 3 6 6 6 6 7 V 3X2XOXOX@X@X@X@X@X4X@X@.        ",
"        , 5.@X@X@X+X+X+X+X+XOX;X) n y.f.z.l.f.g.g.j.(.qXqX@XOX@X@X@X@X@X+X+X:X: % 3 6 6 6 6 6 B ,X2X@X+X@X@X@X@X@X@X@X$.        ",
"        # 2.4X@X@X@X@X@X@X+XOX8.>XI.f.h.f.f.r.G F C i.Y.].qX2X+X@X+X@X@X@X3X;X* * 6 6 6 6 6 6 e <XqX@X@X@X@X@X4X@X@X@X*.o       ",
"          %.4X4X4X@X@X@X2X+XOXOXOX6.G b v 8 6 6 a 8 7 F r.s.I.[.@X@X@X@X3X1X} & 3 6 6 6 6 6 6 e ].rX2XOX@X@X@X@X@X@X8.j         ",
"          / +X4XqX2X@X@X+X+XOXOXoX6.u * % & 6 7 6 6 6 6 7 B G e.t.s.K.I.I.I.V 6 6 6 6 a 7 7 8 K ].2X4X@X@X@X@X@X@X+X+.          ",
"          , oXqX2XqX2X@X+X+XOXOX#X;X:.t * % & 6 6 5 6 5 7 6 6 4 7 M N K F V 6 6 6 6 6 5 e K r.h.[.4X@X+X@X@X@X@X+X8.a           ",
"            o.+XqX4XqX@X+XOXOXOXoXoX;X=.t * % * < 4 5 6 4 4 4 4 5 5 6 5 6 5 6 7 6 e D e.d.f.f.q.|.qX+X+X+X@X+X+XOX,.X           ",
"            + 4.@X4X2X@X@X@X+X8.OXoXOX;X:.u # % % & < 5 4 4 4 4 4 5 5 5 5 6 B K r.d.d.d.d.d.f.j.$X@XoXOXOX+X@X+X3.T             ",
"              $ 1.@X@X@X+XOX+XOXoXoXoXOX;X-XQ r # * % * * : : < < M B F G e.t.t.k.d.d.t.e.F M ~ OXoXoXoXoXOX+X3.T O             ",
"                + +.5.OXOXOXOXoXoXoXOXoXoX3X;X;.! W Q z ~ Y { { [ ] ] P.n.n.n.n.a.F c # + t E -XoXoXoXoX5.8.3.`                 ",
"                    a o.$.1.2.5.oX5.5.oXoX5.3.6.6.-X>.>.>.<.<.,.,.*.,.2.2.3.'.#.W Q ! ! ! -.;X'.3.5.3.*.T h a .                 ",
"                        . # a _ $./ j T ( T T ( &.` _ +.` / ( l T T / o.o.$.$.$.*.<.<.) ) ^ T Y h a j X                         ",
"                                X               .     O               .   o o o X # X                                           ",
"                                                                                                                                ",
"                                                                                                                                ",
"                                                                                                                                "
};
