/* XPM */
static char *_6bcfebdd4b942d9f972ba60d07a3d11JhOYJT9PIX3jRa67[] = {
/* columns rows colors chars-per-pixel */
"64 64 231 2 ",
"   c #000000",
".  c #000109",
"X  c #000015",
"o  c #00001D",
"O  c #0C071D",
"+  c #34041C",
"@  c #350517",
"#  c #28101D",
"$  c #372C1E",
"%  c #2D241E",
"&  c #000024",
"*  c #00002B",
"=  c #00092E",
"-  c #0A0624",
";  c #150C24",
":  c #150A2C",
">  c #1C1426",
",  c #000033",
"<  c #000C34",
"1  c #00013B",
"2  c #000E3A",
"3  c #001136",
"4  c #001238",
"5  c #00183A",
"6  c #1B1837",
"7  c #290827",
"8  c #360721",
"9  c #260D37",
"0  c #271436",
"q  c #301630",
"w  c #332930",
"e  c #480F1D",
"r  c #590E1D",
"t  c #62121D",
"y  c #6C151D",
"u  c #741519",
"i  c #47381D",
"p  c #762B1D",
"a  c #481327",
"s  c #4F1935",
"d  c #491629",
"f  c #661924",
"g  c #761922",
"h  c #4A3824",
"j  c #582434",
"k  c #492D32",
"l  c #682B2B",
"z  c #732427",
"x  c #59481C",
"c  c #69591C",
"v  c #725C1D",
"b  c #6C451A",
"n  c #7B6518",
"m  c #544431",
"M  c #554523",
"N  c #6C5622",
"B  c #66562B",
"V  c #695928",
"C  c #735527",
"Z  c #635336",
"A  c #756327",
"S  c #000243",
"D  c #000A45",
"F  c #00024B",
"G  c #000B4C",
"H  c #001144",
"J  c #00124C",
"K  c #001A4B",
"L  c #0E1C47",
"P  c #000253",
"I  c #000B53",
"U  c #00025C",
"Y  c #000C5B",
"T  c #0C0758",
"R  c #001353",
"E  c #001A54",
"W  c #00135C",
"Q  c #001B5C",
"!  c #1A1257",
"~  c #181249",
"^  c #2A1A43",
"/  c #291755",
"(  c #012255",
")  c #01245B",
"_  c #002C5A",
"`  c #002B57",
"'  c #00335D",
"]  c #19244B",
"[  c #362A47",
"{  c #2B2856",
"}  c #293654",
"|  c #000262",
" . c #000C63",
".. c #00016B",
"X. c #000B6B",
"o. c #001463",
"O. c #001B62",
"+. c #00146B",
"@. c #001B6B",
"#. c #010375",
"$. c #00027C",
"%. c #020B76",
"&. c #00137C",
"*. c #001877",
"=. c #1C1269",
"-. c #002364",
";. c #002C63",
":. c #00246A",
">. c #002B6C",
",. c #003B64",
"<. c #00346A",
"1. c #003A6B",
"2. c #003561",
"3. c #012777",
"4. c #00337A",
"5. c #003A78",
"6. c #133467",
"7. c #144B5D",
"8. c #00456A",
"9. c #004C7D",
"0. c #004876",
"q. c #005479",
"w. c #005077",
"e. c #1B4362",
"r. c #00627B",
"t. c #88161A",
"y. c #981917",
"u. c #9F160F",
"i. c #AB130C",
"p. c #A8180D",
"a. c #B3120C",
"s. c #B9170C",
"d. c #A81712",
"f. c #B91915",
"g. c #A30E10",
"h. c #943017",
"j. c #AB290C",
"k. c #B4280C",
"l. c #AE360C",
"z. c #B4360C",
"x. c #BF3C0C",
"c. c #BB370C",
"v. c #B53411",
"b. c #8A1920",
"n. c #C3140C",
"m. c #C9160C",
"M. c #D8160C",
"N. c #D91913",
"B. c #C51912",
"V. c #E5150C",
"C. c #EC130C",
"Z. c #E71B0C",
"A. c #F2120C",
"S. c #C7360C",
"D. c #D8370C",
"F. c #D1270C",
"G. c #E5360C",
"H. c #E5230C",
"J. c #B3450C",
"K. c #B6570C",
"L. c #AD490C",
"P. c #816B14",
"I. c #887417",
"U. c #937616",
"Y. c #B56B0C",
"T. c #B57B0C",
"R. c #826922",
"E. c #994917",
"W. c #D5480C",
"Q. c #CA590C",
"!. c #D8550C",
"~. c #C4770C",
"^. c #CD690C",
"/. c #998416",
"(. c #B6800C",
"). c #BD810C",
"_. c #BA8D0C",
"`. c #B58B0C",
"'. c #AD920F",
"]. c #AF9A0C",
"[. c #B5930C",
"{. c #BB9B0D",
"}. c #B79A0C",
"|. c #A78912",
" X c #AA9312",
".X c #A79212",
"XX c #B79011",
"oX c #B6A40C",
"OX c #BBA40C",
"+X c #B7AC0C",
"@X c #B9AB0C",
"#X c #B6B30C",
"$X c #B8B10C",
"%X c #B7BA0C",
"&X c #C3820C",
"*X c #CA870C",
"=X c #C69C0D",
"-X c #C4950D",
";X c #C4A40C",
":X c #CBA40C",
">X c #D1A40C",
",X c #B5C30C",
"<X c #B8CA0C",
"1X c #B6D40C",
"2X c #B6DA0C",
"3X c #B9DC0C",
"4X c #B8D50C",
"5X c #B6E30C",
"6X c #B9E30C",
"7X c #B9ED0C",
"8X c #B7EB0C",
"9X c #B6F40C",
"0X c #B8F40C",
"qX c #B6FB0C",
"wX c #B8FD0C",
"eX c #000383",
"rX c #000C87",
"tX c #001884",
"yX c #002C81",
"uX c #002381",
"iX c #003283",
"pX c #003985",
"aX c #004483",
"sX c #004887",
"dX c #005383",
"fX c #005788",
"gX c #006282",
"hX c #006B87",
"jX c #00678B",
"kX c #00718C",
"lX c #007B91",
/* pixels */
"                                                                                                                                ",
"                                                                                                                                ",
"                                                                                                                                ",
"        . X X X X o < 3 < 5 & X X X X X < < , 4 & X X X X o 3 3 < < & X X X X & 3 3 3 5 o X X X X & 2 < < < o X X X X .         ",
"      . R S * & , G O.S 1 G  .1 * * , I O.1 1 R O.1 * * 1 I o.1 1 I Q 1 * * 1 R W 1 1 Y Y 1 * * 1 Q R 1 1 W I 1 * * 1 I .       ",
"      X S ;.R 1 E ;.1 * * , S ..P D W ) 1 & & & G o.F S | U 1 * * * J ;.D S O.Y 1 * * 1 I  .S D ;.E * & & 1 U U F F  .G X       ",
"      X * J q.q.w.1 & * * , 1 P %.*.>.1 o & & & * I %.#...S * * * & * ' q.0.-.1 * , * , 1 o.5.0._ * & & & * 1 ..#.$.U 1 X       ",
"      X & 1 q.lX8.1 * * * * , F &.iXO., & o & & * F tXrXU 1 * * & & & K hXjXE , * , , * 1 P sXfXK * & & * * 1 P eX$.F * X       ",
"      X * ( w.8.7.q + + + 8 7 9 / / { 7 @ @ ; o , Y %.....S * * & & , ,.w.<.>.1 * : 8 8 7 / } } [ 7 @ @ @ @ 7 ! ....| 1 X       ",
"      X G _ d v.c.z.c.G.G.D.l.l.x.S.c.l.s.V.V.d.0 W S 1 P | S * * , ) ) S 1 J ^ h.G.G.S.l.z.S.S.z.z.D.G.G.B.i.a.d.d U I X       ",
"      < O.k OXoX;X;XoX;X;XOXoX;XoXoX;X;XoX-Xx.a.d.: * * , F o.F S O.E , & & > [.oX;X@XOXOX:XoXOX;XOXoX;X@XOX{.Q.A.C.a Y <       ",
"      4 1 U.oXoXoX:XOX,X3X@X:XOXoXoXoX:XOX<X2Xl.m.g & * & , W 4.4.@.1 * & & x >XOX1X1XOX:XoXoXoXOX:X@X1X1XOX>XoX^.A.f.1 <       ",
"      , 1 [.oXoXOXOX;X3XwX%X:XOXoXoXoX;XOX5XwX(.m.g.& & & * G aXpXY 1 * * * P.:XOXqX0XOX:XOXoXoX+X:XOXwX0XOX:XoXoXC.N., &       ",
"      1 S {.oXoXoX:XOX#X%XOX;X;XoXoXoX:XoX#X%X}.s.g.& & & , ;.>.+.X.S , , * I.:XoX%X%XoX:XOXoXoXoX;XoX%X%XoX>XoXoXH.V.1 <       ",
"      & U |.:X;X;XOXOX:X:X;XOX:X:X;X:XoXoX:X:XOXa.u & & = ` ) 1 1 F | S 1 * P.oXOX>X>X;XOX:X;X;X:XoXoX;X:XOXOX:X;XD.f.) =       ",
"      X 1 A OXOXOXOX;XOXOX;X;XOX;X;XOXoX:XoXoX{.s.j G D 2.` * * * , F ..F F m OX:XoXoX:XOXOX;X;XoXoX:XoXoX:XOXOX;XB.z D X       ",
"      X * 6  X,X+X;XOXoXoXoX;XOX<X3X+X;XOXoXoX~.n.L 0.dX<.1 & & * * 1 U %.$.T XXoXoXoXoX:XOX2X1XoX:XoXoXoXoX:XoXOXp.6 * X       ",
"      X * 1 ! A |.=XoXoXoXoX;X;X6XwX#X:XoX]. Xh.7 D pXfXE * * & & * , G yXrXP > n  X].oX:XOXqX0XoX:XoXoXoXoX=X|.C e.G * X       ",
"      X , Y #.U ..S P.OXoXOX:XOX@X#X@X;Xv & & & 1 O.@.o.*.S * * * & 1 -.:.+.+.1 & & & v ;XoX%X$XoX:XOXoXoXn 1 +.O.+.o.1 X       ",
"      o G -.1 , S | C :X;X:XOXoX:X:X&Xa.y & * , R Y S 1 F | S * & 1 ) E 1 1 I W 1 , * N OXOX>X:X;XOX:X-XV.g Y P S S I Y &       ",
"      < O.1 o & & 1 m OXOXoXoX:XoXoX&Xs.l K H ' E 1 * , , 9 s t t j ] & & & * S X.F F B OX:XoXoX:XOXOX&Xa.s F , , , 1 I 3       ",
"      < S & & o & & $ ,X5X#X:XoXoXoX&XV.l r.gX1.1 * * > E.^.K.T.L.a.M.y.O & & 1 U $.$.B :XoXoXoXoX>XoXoXs.q 1 * * , * 1 =       ",
"      , 1 & & & & & % 1XwX%X:XoXoXoX).C.z r.kX_ 1 & - /.oX;XOX7XwX).F.A.d.& & , P eX$.B ;XoXoXoXoX>XOX}.k.9 1 , , , * 1 &       ",
"      2 G * & & & 1 ~ oX#XoX;X;XoXoX).m.l 1._ 5.D = x oXoX:XOX@X#XOX-XA.C.e * 1 X...| B :XOXoXoXOX:XOXK.a.] 1 * * * * F 4       ",
"      & o.G * * , P P :X:X;XoXOX:X;X*Xa.f 1 , D o.1 |.:X:XOXOX:X:X;XoXQ.V.y., o.I 1 , N oX;X:X:X;XoX=XW.m.J Y 1 , , S o.&       ",
"      X 1 o.Y F  .U , .XOXOX;XOXOX;XT.a.g & & * S ~ OX;XOXOX;XoXoX;X;X[.a.i.) G = & & v ;XoXOXOXoXOX;XD.N.* I -.G I :.D X .     ",
"      X * F &.&.*.S & U.oXoX;X;X<X8X`.n.b.* , * , M <X6X@X>XoXoXoXoX:XoXL.j.q 1 & & & c :XOX5X5XoX:XoXZ.f.& , ;.dXdXE * X       ",
"      X * S #.rX..1 - n oXoX;X;X3XwX[.n.b.* , * * U.6XwX@X>XoXoXoXoX;XoX[.j.u * & & & c :XOX0X0XoX:XoXA.y.& , ) kXgXJ * X       ",
"      X 1 U ..U ..P * c OXOX:XOX@X$XT.a.g , , * : oX@X$XOX;X;XoXoXOX:XoX[.i.u.< & & o v ;XoX+X+XoX;X_.A.t.* D 8.' ' ,.1 X       ",
"      X I U S 1 F U F x :X:XOXOX>X>X&Xi.t 1 , 1 k oX>X>X;XOX;X=X:X;XoXoX:XS.a.^ 1 * & v oX;X>X>XOXoX*XM.t D ;.H , 1 J Q &       ",
"      3 o.1 * * * S ..k OXOXOX:XOXoX&Xs.f U P ..R.:XoXoX;X:X}.v |.}.;X:XoXQ.V.z >.J F V ;X;XoXoX:XOXT.i.q 3.D * & & * I <       ",
"      3 S * * * * * F { ,X@X>XOXoXoX).V.f 3.tXU =XoXoXoXoX*XY.[ Z oX>XoXoX).A.f.E yXeXB >XoXoXoXoX:XK.i.} R , & & & & 1 =       ",
"      , 1 * & * * & F ! <X#X:XoXoXoX~.C.f 0.tX[ :XoXoXoXoX^.k.#.{ oX>XoXoXoXZ.M.0 tXeXB :XoXoXoXoX:XK.a.6.I , * * * * 1 &       ",
"      4 I * & & & 1 | P oXoX;X:XoXoX).m.l ;.P V ;X;XoXoX@XS.g | P  X;X;XoXoXW.n.j Y U B :XOXoXOX;X;Xv.i.( +.1 * * * , D 3       ",
"      & Q J * * , ( Y , XX;XoXOX>X:X*Xa.f , & [.oX;X:X:X=Xi.a , * v OX:X>X:X~.p.y., 1 N oX;X:X>X;XOXS.f.* G U S 1 1 F  .&       ",
"      X 1 ;._ J ,.) * & /.OX;XoXoXoX(.s.g & % oX;XoXoXoXY.i.; * * i ;XOXOXoXoXs.M.7 * v OXOXOXOXOX;XH.f.& * P ..P U ..S X       ",
"      X * D q.hXw.1 & & P.oX;XOX4X9X`.m.b.O c oX:XOX3X9XL.y.& * & - =XOX6X0XOX!.A.y * N :XOX7X6XOX:XA.y.& * 1 U eX$.P , X       ",
"      X & S q.jX1.1 & & v oX;XOX3XwX_.m.t.X /.+X;XOX5X0Xp.t = * * & U.OX0X0XOX^.A.f.& N ;XOX0X0XOX*XA.t.& * 1 U tXtXF , X       ",
"      X 1 Q -.R >.R * * x OX:XoXoXoX(.a.p > oX;X:XoXoX(.i.0 * * & * i oXOXOXOX:XZ.D.; C ;XOX@XOXOX&XZ.t & * D *.U U +.1 X       ",
"      o W I 1 1 S Y D 1 h :XoXOX>X>X&Xa.l x ;X:XoXOX:X!.a.( D , , 1 ~ OX>X:X;XoXJ.D.x c oX;X:X:X;XY.s.a , D o.S * 1 G Q &       ",
"      5 Y 1 * * * 1  .U w oXOX:XoXoX&XS.B I.OXoX;X:XoXH.y.1 >.E I ..S U.oXoX;X;XY.v.I.V ;X;XoXoX;XK.i.9 I :.S & & & & G <       ",
"      < 1 * , , , * F $.=.oX>XoXoXoX&X!.v ,X9X+X:XoX_.A.e * I 9.iX| 1 x oXoXoX:X{.K.<XA :XoXoXoXoXK.i.6.yXI * & & & & 1 *       ",
"      3 1 * , , , , F $.$.OX>XoXoXoX&X*X'.2X9X#X>XoX^.C.O * J sXiXU 1 0 oXoXOX:XOX_.0X'.:XOXoXoXoXQ.g.3.yXI * & o o & 1 &       ",
"      5 Y 1 , * , 1  .U F '.;X:XoXoX_.:XoXoXoXoX;X=XD.d.o < <.Q I X.F * /.oX;X;XOX_.OXoX;X;XoXoX;Xl.y.P Y :.1 & & & & G 4       ",
"      o Y I 1 1 S U I 1 & |.OXOX:X:X:XOXOX:X;X;XoX=XM.t 1 ;.J , , S | F c :X;XOX;X:X:X;XoX:X:X:XOXp.t.* , D -.S * 1 D O.&       ",
"      X 1 Y o.P +.Y , & o I.>XoXOXOXoXOX:XoXOXOX:XY.i.] <.D * * * * S ..^ {.oX;X;XoXoX;X;XoXOXOX{.s.t.& * * D >.R R >.S X       ",
"      X * S 5.sX>.1 * & & v ;X;X2X0X#X:XoXoXoXoX;XJ.y.pXo.1 * & * * * P #..XOX:XoXoXoXoX:XoX7X7X_.V.t.& & * 1 W iXyXP * X       ",
"      X * D 9.dX1.1 & * * x ;XOX2X9X$X:XoXoXoXoX;Xs.j uXU 1 * * & & * P eXA OX:XoXoXoXoX:XoX0X8XT.M.t & & & 1  .tX&.I , X       ",
"      X 1 ;.;.K ,.( , * * i :XoXoXoXoX;X:XoXoXOX~.i.0 P ..P , * & & 2 >.U w oX;X;XOXoX;X;XoXOXOXY.n.e & & * P ..U U ..S X       ",
"      & Q E * * 1 ( R 1 1 w oXOX:X:X:XOX;X:X>X;XK.d., 1 S U F 1 , D ,.H * - {.OXOX:X;XOXoX:X:X:XQ.a.> * , P | S 1 1 F Y &       ",
"      2 I * & & & , Q o.U ~ oX:XoXoX;X:XoXOX@XOXk.y.* * , S ..Y R 1.H & & o I.;XoXoXoXoX;X;XoXoXQ.n.7.( E +.S , * , , F 4       ",
"      , 1 & & & & * D 3.eXT =XoXoXoXoX;X;X3XwX}.M.r * * * 1 P yXsXO., & & & i :XOX0X0XoX:XoXoXoXD.M.E fXsXG 1 = * , * 1 &       ",
"      < 1 * & & * * F iXeX| -X{.oXoXoX;X;X2X9XY.m.: * * * , I iXpXO., * & & ; :XOX7X7XoX:XOXoXoXG.f.Q sX5.I , & * * * 1 =       ",
"      5 W , * & * 1 O.R F | /.:XoXoXOX;XoXOXOXz.t.* * & & S :.I G @.F * * * & U.oXOXOXoX@X;XoXoXM.t.O.G I @.S * & * * I 4       ",
"      o I U 1 1 S | F , * , I.oX>X>X:XoXOX:X=Xn.s G , , D ;.D , * S | P 1 1 F m :X:X:X;XOX;X:X:Xa.g S 1 1 S -.D , 1 J Q &       ",
"      X 1 U ..U ..P , * & o v OX@X@XoXOX;XoX~.C.0 -.-.` 8.K & & * * S ..| U ..0 ;XoXOXOX;XOXoX[.i.r * * * * D 8.` ' 1.1 X       ",
"      X * S #.eX..S * & & & b OX3XwX#X:XoXoXW.f.& G q.kX' * & & * * , P eXtXP * /.OXoXoX:X@XqX,Xi.a , * * * , _ kXhXJ * X       ",
"      X * F $.eX..S * * & & > OX<X7X+X:XOX].V.e , R dXfX8., & * * * , U eX&.U , $ ].oXoX:XOX5XoXg.: , * * & , 2.kXq.E * X       ",
"      X 1  .U F | U 1 & & * , w n I.I.I.I.b e * S :.R J 2.K * & * , F ..P P +.F & $ n I.U.I.I.p 0 D , * * * J <.J E <.S X       ",
"      . R P , , 1 T I 1 , S  .F , * 1 U I 1 1 S o.D , * 1 Q G 1 , F  .S , , 1 o.D 1 , D ..1 * , 1 ..D 1 1 I -.1 * * S E .       ",
"        . X X X X o 2 = & 2 = X X X X o 3 < & 4 * X X X X & 4 = & 4 & X X X X & 4 & = 4 & X X X X & 4 = & 4 & X X X X .         ",
"                                                                                                                                ",
"                                                                                                                                ",
"                                                                                                                                "
};
