/* XPM */
static char *a66fa19ca89640efd2b59c94bf798019S1Q3dabKMNvZxN5h[] = {
/* columns rows colors chars-per-pixel */
"16 16 6 1 ",
"  c None",
". c #3A3F5E",
"X c #4C6885",
"o c #4FA4B8",
"O c #92E8C0",
"+ c #F5FFE8",
/* pixels */
"                ",
"          +++   ",
"             ++ ",
"   O ++++ OOO  +",
"  +O+OooOOO+++  ",
" +oOOoOOOooXOO+ ",
"+OoOOXXooXXoOOO+",
"+OOoX......XoOO+",
"+OOOoX....XOOoO+",
" +OOXooOOOoOOo+ ",
"  +++OOOooO++O  ",
"+  OOO ++++  O  ",
" ++             ",
"   +++          ",
"                ",
"                "
};
