/* XPM */
static char *_841c6778a4a4c04957ef000bf360407z12YFIfsd0YYTWbL[] = {
/* columns rows colors chars-per-pixel */
"64 64 218 2 ",
"   c None",
".  c #181F3B",
"X  c #16203D",
"o  c #1A213D",
"O  c #553430",
"+  c #643627",
"@  c #66392A",
"#  c #683C2E",
"$  c #633D3B",
"%  c #704437",
"&  c #784636",
"*  c #7D4A39",
"=  c #192442",
"-  c #1A2545",
";  c #1C2748",
":  c #1E294B",
">  c #222644",
",  c #242947",
"<  c #282947",
"1  c #202C4E",
"2  c #2B2C4C",
"3  c #312E4F",
"4  c #2B334A",
"5  c #212D50",
"6  c #2C2E51",
"7  c #332F50",
"8  c #2D3551",
"9  c #293256",
"0  c #343153",
"q  c #393656",
"w  c #313954",
"e  c #3B3857",
"r  c #37355A",
"t  c #39365B",
"y  c #343D59",
"u  c #3D395C",
"i  c #3D3B61",
"p  c #3E3C69",
"a  c #41375A",
"s  c #41395D",
"d  c #433C63",
"f  c #4A3C66",
"g  c #553B6C",
"h  c #4E2B7E",
"j  c #5E3C71",
"k  c #653A73",
"l  c #6D3A75",
"z  c #3B455E",
"x  c #3D486A",
"c  c #4C4A57",
"v  c #43425E",
"b  c #744A44",
"n  c #715151",
"m  c #454463",
"M  c #4A4963",
"N  c #454668",
"B  c #4B436A",
"V  c #4C4C6C",
"C  c #54476E",
"Z  c #54556D",
"A  c #4B4678",
"S  c #544572",
"D  c #574A78",
"F  c #4A5476",
"G  c #555573",
"H  c #575874",
"J  c #5B5A75",
"K  c #5D5D7B",
"L  c #665F6B",
"P  c #62467A",
"I  c #63557E",
"U  c #5E607A",
"Y  c #63667D",
"T  c #7A6C77",
"R  c #854F3D",
"E  c #885446",
"W  c #825350",
"Q  c #9D624F",
"!  c #A66A56",
"~  c #A66C59",
"^  c #A86F5D",
"/  c #9A6D65",
"(  c #9C7373",
")  c #B97B66",
"_  c #C2806B",
"`  c #4E2185",
"'  c #512B83",
"]  c #533084",
"[  c #59318D",
"{  c #5B2C98",
"}  c #6C32AC",
"|  c #6C31B6",
" . c #6F3DB1",
".. c #753DBA",
"X. c #494780",
"o. c #4C4A85",
"O. c #4E4C89",
"+. c #554D86",
"@. c #534E8A",
"#. c #5A5683",
"$. c #55538D",
"%. c #5C538C",
"&. c #5B5493",
"*. c #5A5792",
"=. c #6C4483",
"-. c #76498C",
";. c #775B8D",
":. c #7B4B95",
">. c #6E5393",
",. c #655999",
"<. c #5F6181",
"1. c #666686",
"2. c #686781",
"3. c #6C6D8C",
"4. c #666696",
"5. c #786792",
"6. c #6D7192",
"7. c #777997",
"8. c #6D45A8",
"9. c #7D52BD",
"0. c #6D67A0",
"q. c #7A77A5",
"w. c #7635C5",
"e. c #7B36C3",
"r. c #903C8B",
"t. c #953C8B",
"y. c #9C3C8E",
"u. c #AB3C95",
"i. c #B63D9C",
"p. c #BA3D9F",
"a. c #8C38B9",
"s. c #9A3BB5",
"d. c #A93BA5",
"f. c #B43DA1",
"g. c #BB3EA1",
"h. c #914A8E",
"j. c #884A9B",
"k. c #865991",
"l. c #AE4399",
"z. c #897C88",
"x. c #836699",
"c. c #837A9E",
"v. c #934FAB",
"b. c #9757A9",
"n. c #B844A5",
"m. c #AA57B9",
"M. c #916BAB",
"N. c #8878AE",
"B. c #AA67B2",
"V. c #A37AB4",
"C. c #C143A8",
"Z. c #C949B5",
"A. c #C84AB5",
"S. c #C654B9",
"D. c #8E52C7",
"F. c #B75BC5",
"G. c #9973CB",
"H. c #BC7EC9",
"J. c #C957C9",
"K. c #D255C9",
"L. c #D559D0",
"P. c #D95BD5",
"I. c #DE5EDA",
"U. c #CB61D6",
"Y. c #D16CDA",
"T. c #E163DF",
"R. c #DC66E5",
"E. c #E466E8",
"W. c #E667EA",
"Q. c #E969EE",
"!. c #E775EA",
"~. c #EB6AF1",
"^. c #EC7EF1",
"/. c #7D819F",
"(. c #7D86A6",
"). c #86808E",
"_. c #8A8593",
"`. c #968E9C",
"'. c #AE8F90",
"]. c #8586A9",
"[. c #8E91AE",
"{. c #9692A5",
"}. c #8989B3",
"|. c #8E91B1",
" X c #959AB9",
".X c #989ABA",
"XX c #A59BA6",
"oX c #AC81BC",
"OX c #A8A4B7",
"+X c #918FC5",
"@X c #A883CA",
"#X c #9AA6C6",
"$X c #A3A9C5",
"%X c #B1ADCA",
"&X c #AFB4CE",
"*X c #B9B5C8",
"=X c #B7B9D2",
"-X c #C387DC",
";X c #DB81D5",
":X c #C794D4",
">X c #D396DA",
",X c #C2B6CF",
"<X c #E5BADE",
"1X c #DA9DE2",
"2X c #E58CE8",
"3X c #ED8BF3",
"4X c #F18FF6",
"5X c #ED97F1",
"6X c #D7A7E6",
"7X c #EBA6F1",
"8X c #B6C4E6",
"9X c #CDCBDE",
"0X c #DAD5E8",
"qX c #ECD2F0",
"wX c #EEE7F2",
"eX c #EDE9F4",
"rX c #F7F5FA",
"tX c #FDFCFE",
/* pixels */
"                                                                                                                                ",
"                                                                                                                                ",
"                                                                                                                                ",
"                                                                                                                                ",
"                                                                                                                                ",
"                                                                                                                                ",
"                                                                                                                                ",
"                                                                                                                                ",
"                                                                                                                                ",
"                                                                                                                                ",
"                                                                                                                                ",
"                                                                                                                                ",
"                                                                                                                                ",
"                                                    : : , 4 4 9 : - o : 1                                                       ",
"                                                  1 n / / / / / n * n @ O ;                                                     ",
"                                                : : / _ ) ) ) ) Q R * % O X ;                                                   ",
"                                              : 5 5 ( ) ^ ~ ^ ^ Q * @ % O , 1 1                                                 ",
"                                            9 (.#X#X&X=X*X X`.{.{._._.L c z z z 5                                               ",
"                                            9 #X8X#X*X*X*XXX`.`._.z.z.L c z M x 1                                               ",
"                                            9 #X#Xx ( ) ! ! ! ~ % # + % O 4 z M :                                               ",
"                                              x 6. X'.) ! ! ! ! & @ + + O M y 1                                                 ",
"                                                F #X'.) ! ! ! ! & @ @ % n Z w                                                   ",
"                                                9 $.}.'.! ! ! ! & + @ z.[.u 1                                                   ",
"                                            9 9 r A .XXXR R Q ! & @ @ T (.i 0 6 7                                               ",
"                                          8 t r r i $XXX@ * E ! & + + T 7.u t t r 9                                             ",
"                                        0 r t t t i $XXX@ * E R % + + T 7.y r t r r 0                                           ",
"                                      8 r r i 3.].[.=XXX# R R R % @ @ z. X6.1.1.t r r 9                                         ",
"                                    6 y r x F ]. X&X&X`.% b W W % O $ _. X].7.6.V i r r 8                                       ",
"                                  0 r t r 3.=X0.$.$.,.,.%.%.&.,.%.%.&.$.$.O.O.&.q.H y r r r                                     ",
"                                9 r r i 7.].q.&.$.%..X=X&Xq.&.*.&.&.&.&.$.$.@.@.4.1.<.i r r 6                                   ",
"                              8 r r i G $X}.O.&.,.q.0XrXwXN.&.&.&.&.*.&.*.*.$.O.o.4.7.V u r y 9                                 ",
"                            8 y r r 6.&X4.&.&.$.}.eXtX0X4.&.&.&.&.&.&.&.*.&.&.$.O.O.&.7.K r 9 9 z                               ",
"                          8 r r i 7.].N.*.$.*. X9XtX,X}.D A A D M.@X@X4.A D A D @.@.O.4.1.#.i r r 9                             ",
"                        2 r r p G $X}.@.*.,.q.wXrX0Xq.X.d d d s V.7X7XM.S D B B $.O.o.o.4.7.V i r r 6                           ",
"                      7 3 7 r 6.$X4.+.@.&.}.eXtX,XZ B d d d s s C :.!.2X6X1X5.m B d i A o.$.7.K 3 0 r 0                         ",
"                    ; 2 7 t 1.7.}.+.+.@.*.q.%XOXz.a d d d i a a i S b.Y.4X4XH.x.f s s d A o.<.K G q 0 r 6                       ",
"                  - < 7 r N |.q.o.+.@.+.&.%.@.d s u d d d d s s d d d b.W.W.3X1XS i s s d X.p F 7.m r r r 2                     ",
"                  1 r r 1.[.4.@.o.&.&.&.&.+.f d d d d d d d d d d d d S =.g.;X1XS d d d p p X.A N K G t t 8                     ",
"                  6 r r 6..X$.o.O.&.&.&.o.A m x.;.d d d d d d d d d d j r.S.2X>XS d d d i r f p u Y G t t 6                     ",
"                  6 r r 6. X$.O.O.&.&.%.B f D :XoXd d d d d d s d f f r.Z.W.3X:XS d d d i r r r u Y H t t 6                     ",
"                  6 r 7 3. X$.O.O.+.X.f d 5.:X;.C q s d d s s s p g y.J.E.~.b.D B s u s t t t r q Y G t t 6                     ",
"                  6 r 7 3. X$.O.O.+.g q i k.Y.b.:.:.S d d s s s d j g.P.E.m.-.i d I ;.d t r t r q I H t t 2                     ",
"                  6 r 7 3. X$.O.@.+.g d f l n.P.E.R.-.m B v s s d k g.L.J.f s d d V.1XP i r t r q U H t t 2                     ",
"                  > r 7 3. XD N.,X+.d d a s C P h.A.F.Y.:X=.s d l n.P.v.S d d s s b.^.>Xk.7 7 7 e Y D 0 0 2                     ",
"                  < 0 r 6. Xo.M.>XM.I d s a s s j t.J.!.7X;.d d h.Z.W.m.=.f s a a -.F.;XB.=.t r u K Z 7 7 2                     ",
"                  , r r 6. Xo.:.L.5XV.i a a s s d f y.S.7X;.d f y.Z.W.Q.U.j d s s s g u.K.R.f 0 y H V 7 7 2                     ",
"                  2 q 0 3..X$.v.K.!.b.8 u d s s i s t.A.!.-.a s t.C.Z.I.W.J.-.a d q a u.K.R.f 7 q J V q t 6                     ",
"                  6 t 7 K 7.4.M.I.~.F.=.-.P f s g -.n.S.F.P q a l y.p.K.~.~.j.x d g l C.K.K.l g v M v r r 5                     ",
"                  1 r 7 7 s [.:X3X!.Q.W.Q.m.f d :.W.~.F.f a a a a k i.L.Q.Q.j.s p r.C.~.K.i.p.h.Z e 7 7 r 2                     ",
"                    , 3 r t V 7.:XS.Z.Z.A.S.F.F.U.~.~.L.y.y.y.y.t.y.p.C.K.Q.Y.F.F.;XqXqX-Xa.;.C e e q 7 ,                       ",
"                      2 7 r 7 G c.h.l.i.d.A.I.I.I.I.W.I.Z.C.p.p.g.p.g.p.C.L.I.T.3XqXrX0X@X .D v 7 r 0 <                         ",
"                        2 7 0 q s Y k.f...a.g.g.g.g.I.~.W.Z.p.p.p.p.p.p.g.g.p.S.wXtXwXD.>.Z q q y 7 <                           ",
"                          , 7 0 0 v P k...e.a.a.s.g.C.Z.Z.s.a.a.s.a.a.a.m.<X<X0XtX6XG.+X3.v 0 7 0 >                             ",
"                            6 7 7 3 c K 8.9.w.w.a.d.d.d.d...| | | | | | D.rXtXrXqX@X9.N.I 0 0 3 <                               ",
"                              , 7 3 7 q I >.w.w.w.e.e.} ` ` ` ` ` ` ` ` 8.eXtXqXD.G.|.N 7 7 7 <                                 ",
"                                > 3 0 r m D >...w.w.} { ` ` ` ` ` ` ` ` [ M.G.G.&.+.G r 3 3 <                                   ",
"                                  < 3 3 3 v K 8.8. .[ h h h ' ] ] ] ' ] ] h {  .M s 7 7 3 4                                     ",
"                                    > 7 7 7 q I 1.L J U J J I Y 2.Y 2.2.Y Z Z V a 7 7 7 <                                       ",
"                                      > 7 7 q c m m v v v v c M M M M M c v s s 7 7 4 >                                         ",
"                                        < 3 7 7 7 7 7 7 7 7 7 3 7 7 3 7 0 7 7 7 7 3 <                                           ",
"                                          > 3 3 7 7 7 0 7 7 7 3 7 7 7 3 0 7 7 7 7 <                                             ",
"                                            > > > > > > > o < > > > > > - > > > o                                               ",
"                                                                                                                                ",
"                                                                                                                                "
};
