/* XPM */
static char *_cf41514450c4c92c27a46a3866040afnPzzbEpBo0gBlF9s[] = {
/* columns rows colors chars-per-pixel */
"64 64 216 2 ",
"   c None",
".  c #17203D",
"X  c #1B213E",
"o  c #352C3C",
"O  c #5E362D",
"+  c #643626",
"@  c #66382A",
"#  c #6D3B2B",
"$  c #694136",
"%  c #784738",
"&  c #172241",
"*  c #1A2545",
"=  c #1C2748",
"-  c #1E294B",
";  c #212442",
":  c #262A45",
">  c #202C4E",
",  c #2C2D4D",
"<  c #302E4F",
"1  c #2E324B",
"2  c #373349",
"3  c #212D50",
"4  c #2B2E51",
"5  c #312F50",
"6  c #2C3355",
"7  c #293454",
"8  c #343254",
"9  c #333756",
"0  c #3B3457",
"q  c #3D3659",
"w  c #3E395E",
"e  c #3F3A60",
"r  c #40375B",
"t  c #443B5F",
"y  c #433C61",
"u  c #4A3D63",
"i  c #4E3F68",
"p  c #573B69",
"a  c #553C69",
"s  c #54377F",
"d  c #663F74",
"f  c #763E7C",
"g  c #3A455F",
"h  c #4F4552",
"j  c #6B4848",
"k  c #754E49",
"l  c #7B5656",
"z  c #474163",
"x  c #4B4166",
"c  c #494B66",
"v  c #4D4269",
"b  c #53426D",
"n  c #59416F",
"m  c #534C6C",
"M  c #525365",
"N  c #454A77",
"B  c #5B4272",
"V  c #524C71",
"C  c #564878",
"Z  c #564A7A",
"A  c #5B5374",
"S  c #5B5677",
"D  c #6E5869",
"F  c #644075",
"G  c #61467B",
"H  c #68477A",
"J  c #625E77",
"K  c #6A577C",
"L  c #615E7D",
"P  c #76686F",
"I  c #64627B",
"U  c #6B6E7E",
"Y  c #74707C",
"T  c #804B39",
"R  c #8B5341",
"E  c #8C5B4E",
"W  c #945C49",
"Q  c #805350",
"!  c #91655B",
"~  c #A76A56",
"^  c #A66B57",
"/  c #AD705B",
"(  c #807179",
")  c #AA7567",
"_  c #B97A65",
"`  c #BD887A",
"'  c #4D2185",
"]  c #4F2188",
"[  c #53238E",
"{  c #563882",
"}  c #5A3C85",
"|  c #562592",
" . c #5D289D",
".. c #7F3F81",
"X. c #683F9A",
"o. c #662EAC",
"O. c #682EAD",
"+. c #7138B2",
"@. c #5B4C82",
"#. c #684A84",
"$. c #774989",
"%. c #665A86",
"&. c #61538E",
"*. c #655594",
"=. c #6A5495",
"-. c #675899",
";. c #6A5C9C",
":. c #725893",
">. c #596688",
",. c #4E6093",
"<. c #6C6D83",
"1. c #6A6588",
"2. c #736A89",
"3. c #6D7081",
"4. c #717484",
"5. c #6E639C",
"6. c #756B97",
"7. c #757393",
"8. c #7C7A9A",
"9. c #7648A9",
"0. c #7754A6",
"q. c #7843BB",
"w. c #6E61A0",
"e. c #7568A4",
"r. c #7A75A2",
"t. c #7535C3",
"y. c #7836C3",
"u. c #843D82",
"i. c #973D8B",
"p. c #9D3F92",
"a. c #A53D93",
"s. c #AA3D96",
"d. c #AD3E98",
"f. c #B43E9C",
"g. c #BB3E9E",
"h. c #9639AF",
"j. c #8437BE",
"k. c #A63BAA",
"l. c #B53DA2",
"z. c #BC3EA1",
"x. c #A13CB1",
"c. c #874A97",
"v. c #984597",
"b. c #934B95",
"n. c #A64599",
"m. c #B6409C",
"M. c #876799",
"N. c #867D96",
"B. c #944FA6",
"V. c #9855A9",
"C. c #BC46A5",
"Z. c #A557B5",
"A. c #B253B5",
"S. c #817EA5",
"D. c #857DAD",
"F. c #8C79B0",
"G. c #AC71B4",
"H. c #C041A6",
"J. c #C245AB",
"K. c #C04BB4",
"L. c #CA4CB9",
"P. c #C756BC",
"I. c #CC65BE",
"U. c #913EC6",
"Y. c #9153CB",
"T. c #B95DC4",
"R. c #946BCC",
"E. c #CA58C9",
"W. c #D356CA",
"Q. c #D357CB",
"!. c #CB5DD3",
"~. c #D95BD7",
"^. c #D06ECD",
"/. c #CB61D5",
"(. c #D764DA",
"). c #E060DF",
"_. c #DA66E3",
"`. c #E667E9",
"'. c #E96CED",
"]. c #7B80A6",
"[. c #9A868B",
"{. c #81829C",
"}. c #B38E8D",
"|. c #8B8AA7",
" X c #9597AC",
".X c #8B84B3",
"XX c #958CB8",
"oX c #8E9BB8",
"OX c #9695B8",
"+X c #9E9EBB",
"@X c #B4A3AB",
"#X c #A5A2BE",
"$X c #979AC3",
"%X c #BC89C9",
"&X c #AD93D1",
"*X c #A8A7C7",
"=X c #B4ADCD",
"-X c #B2B5CD",
";X c #ABB9D9",
":X c #B9B9D4",
">X c #BD9EE1",
",X c #D493D4",
"<X c #E992EB",
"1X c #D3AAE2",
"2X c #E8A8E9",
"3X c #BFC4DD",
"4X c #C2C4DA",
"5X c #C0CEEE",
"6X c #D2CEE1",
"7X c #DBD8E6",
"8X c #F1D8ED",
"9X c #E4D0F3",
"0X c #EDE3F3",
"qX c #F6F1F6",
"wX c #F6F3FA",
"eX c #FDFCFE",
/* pixels */
"                                                                                                                                ",
"                                                                                                                                ",
"                                                                                                                                ",
"                                                                                                                                ",
"                                                                                                                                ",
"                                                                                                                                ",
"                                                                                                                                ",
"                                                                                                                                ",
"                                                                                                                                ",
"                                                                                                                                ",
"                                                                                                                                ",
"                                                                                                                                ",
"                                                      1 1 1 9 9 7 : : : 1 :                                                     ",
"                                                    h ) ) ) ) ) ^ k k % O o *                                                   ",
"                                                  . h ` _ _ / _ / R T % @ o * =                                                 ",
"                                                7 1 M ` ) ) / ) ! E % $ @ o - 7 -                                               ",
"                                              >.;X;X3X3X3X-X X X X X X{.M M c g 7 -                                             ",
"                                              >.5X$XoX@X@X@X[.[.` P ( P h g g M 9 =                                             ",
"                                              >.;X,.L _ ^ ~ ~ ^ E O + + + o 7 c 7 =                                             ",
"                                                N oX@X_ / ~ ~ ^ W @ + @ + h c 3 =                                               ",
"                                                  ]. X}.) ~ ^ ^ W @ @ $ P D z =                                                 ",
"                                                  @.r.*X) ~ ~ ~ W @ + k +X1.9 =                                                 ",
"                                              9 w e 7.3XQ % R ~ W @ + % |.S w w q                                               ",
"                                            e y e y 2.4Xl # R W R @ O j |.S e y y w 7                                           ",
"                                          y e e x v 8.3Xl # E R % $ + j |.L g x e e y 6                                         ",
"                                        e y e %.oX*X-X4Xl # R R % + + k #X X8.8.S e y e 8                                       ",
"                                      e y y 1.r.XX*X*X*XD k Q Q l j j D +X.Xr.|.2.S y e e 4                                     ",
"                                    e e y V -X$X;.;.;.w.w.w.w.;.1.5.-.;.;.;.;.;.r.8.N e e y 4                                   ",
"                                  e y y 2.*XF.e.;.-..X6X7X=X;.;.;.;.w.-.;.;.-.;.5.e.7.S e y e 9                                 ",
"                                e y i 1..X*Xe.-.w.F.:XeX7X=X;.;.;.;.;.;.;.;.;.;.;.5.|.1.Z y e e 3                               ",
"                              e e u A -XOX;.;.;.e.7XeXwXXX;.;.;.;.;.;.;.;.-.;.;.;.;.;.r.].c y y e 4                             ",
"                            w y y 6.+X.Xr.;.-.XX6XwX7XXX&.Z Z Z Z Z Z Z Z Z Z Z *.;.;.w.r.7.S e e e 9                           ",
"                          w e x %.|.*X0.-.;.D.:XeX7X#X*.b v u u x v v v i i x v @.*.*.*.;.S.2.V e e e 4                         ",
"                        q q w V -XOX*.=.=.e.7XeXqX2.u v b v u u y v v v u u u v v v u Z *.;.r.8.x q q w 8                       ",
"                      1 q q %.r..Xe.&.&.-.w.XXOXN.m u x v i u y i v v v u y u i v i u i Z -.5.r.2.A q y w 6                     ",
"                    : 8 t m 8.OXw.-.*.*.-.;.*.Z t t B #.b v x u y v v b p H K v v i i u v &.-.5.r.1.z y y t *                   ",
"                    0 y V OX.X5.;.;.;.;.-.-.C v v x c.(.$.v v v v v x F f.,X,Xb i i v v v b @.;.w.6.1.v e e =                   ",
"                    q y V $XD.-.;.;.;.;.*.Z n x n V.Z.c.B v v v b x b n f A.^.G.2.v v v v v V @.Z 1.<.v e e :                   ",
"                    w y V +XD.-.;.;.-.*.@.x i a d E.T.%.B v v v x v v b B v.P.,XM.v v i v v v i u S <.c z e =                   ",
"                    e q m +XD.;.;.-.*.v v v v $.f.z.I.1X%.u u y u v x F s.Q./.K b u u u u i x x u A <.v e e =                   ",
"                    y q i +XD.;.;.*.&.i u v v d ..d.E.<XG.M.u u u x f v.Q.A.c.b v v y u m F.M.x u A <.x y e X                   ",
"                    e q m +XF.;.0.0.:.a i i v y u i.K.`.<X,Xu x i d v.L.(.$.y v i v u a H <XG.t u A <.x y y ;                   ",
"                    0 e V +XD.=.A.!./.Z u u i u v b ..C.<X%Xv v d s.Q.E.C a i u u u u u.C.`.V.u u J 2.t 0 0 ;                   ",
"                    0 q V +XD.*.B./._.@.u u y i i ..n.W.G.M.b v d C.~._.Z.#.i y u u v F b.L.b.u i A 1.y 0 0 >                   ",
"                    q t V +XD.&.:.Y.!.C u u u i d a.L.(.#.y i u F f.W.`.'.B.B u u u v v n d.u.p i V I y 0 0 ;                   ",
"                    y q m +XF.0.A.b.B u u v v f d.g.v.C p u u u i B n.L.'._.T.a x u t y a d.f.a.p m J x e e =                   ",
"                    w r y 6.S.F.(.A.u.b.V.B.b F u.f.a.u.u.d u u u u i.J.W.`.(.Z.#.a f c.v.f.m.m.K m m y y y *                   ",
"                    q q r t 2.+X<X^.C.(.`._.$.b p a.g.z.C.a.p p p p i.g.g.W.'.'.V.H C.(.'.J.m.n.K m t r q q X                   ",
"                      1 r t x S &XG.g.H.J.J.!.L.a.f.z.z.~.W.s.a.s.s.m.z.g.H.P.'._.'.9X0X9XY.9.K x t t r 4 X                     ",
"                        8 q w t 7.M.n.m.l.Z.W.L.z.z.g.z.).~.z.g.g.z.m.z.g.m.z.Q.<X2XeX9X>X0.#.m t r w 1 ;                       ",
"                          8 q q t D 2.d.h.+.k.l.l.l.g.z.~.~.l.g.g.g.m.m.g.C.J.J.1XeXwX>X+.K M 0 t r 8 X                         ",
"                            8 t r t n 2.9.y.U.j.j.l.g.z.U.U.j.j.j.j.m.g.g.,X8X8XqX0XR.R.XXb r r r < X                           ",
"                              8 r r t J *.9.t.y.y.h.x.h.O.O.O.O.o.O.h.h.h.1XeXeX9X>XR.F.6.z r q < ;                             ",
"                                8 0 r t A 2.q.y.y.t.t.+.| ] ' ' ' ' O.t.t.1XwXwX&X+.$X%.0 0 q 8 X                               ",
"                                  < r r t m %.0.t. .| | ] ] ' ' ' ' [ | | X.0.Y.0.%.G v r r <                                   ",
"                                    < 0 r u A :.9.{ { { { s s } } } } } } { } X.@.M t r 0 < ;                                   ",
"                                      2 r r t A U I J I J J J <.<.<.Y <.<.I A A v t r 0 2                                       ",
"                                        , r r r x z z t z z u z x v c x x u z z t r r < ;                                       ",
"                                          2 r r 0 r 0 q q q q 0 q q q 0 q q 2 q 0 0 2 X                                         ",
"                                            8 r 0 0 q q 0 q 0 0 q 0 0 q q 0 q 0 r 2 X                                           ",
"                                              X X X X : X X o ; X X X X X X X : X X                                             ",
"                                                                                                                                ",
"                                                                                                                                ",
"                                                                                                                                "
};
