/* XPM */
static char *_c169ac338f24458c39e010bda4e3e51lOw2DlSHg1nK6Jtc[] = {
/* columns rows colors chars-per-pixel */
"64 64 215 2 ",
"   c None",
".  c #151E39",
"X  c #17213E",
"o  c #19213E",
"O  c #392C37",
"+  c #553532",
"@  c #643627",
"#  c #66392B",
"$  c #68392A",
"%  c #72402F",
"&  c #69443A",
"*  c #7A4737",
"=  c #172241",
"-  c #1A2545",
";  c #1C2748",
":  c #1E2A4C",
">  c #212644",
",  c #222A47",
"<  c #202C4E",
"1  c #2C2C4C",
"2  c #312E4F",
"3  c #283147",
"4  c #2B334A",
"5  c #212D50",
"6  c #2B2E51",
"7  c #312F52",
"8  c #2E3453",
"9  c #2F3852",
"0  c #323254",
"q  c #3B3457",
"w  c #303953",
"e  c #343459",
"r  c #3E3659",
"t  c #353E5A",
"y  c #3E395E",
"u  c #3C3B63",
"i  c #423A5E",
"p  c #423C62",
"a  c #4A3D64",
"s  c #4C3F68",
"d  c #573D6A",
"f  c #5D3E71",
"g  c #793D7C",
"h  c #38415C",
"j  c #384778",
"k  c #574249",
"l  c #5D4D58",
"z  c #6D504E",
"x  c #73575C",
"c  c #464166",
"v  c #4A4166",
"b  c #484A66",
"n  c #4D4269",
"m  c #4E4A6B",
"M  c #4B4D6E",
"N  c #52426C",
"B  c #514E6C",
"V  c #54526D",
"C  c #59576E",
"Z  c #544673",
"A  c #5C4373",
"S  c #534C73",
"D  c #584B79",
"F  c #565275",
"G  c #595475",
"H  c #5C5A74",
"J  c #5D547B",
"K  c #5D5B7A",
"L  c #75556F",
"P  c #644175",
"I  c #6B437C",
"U  c #64567F",
"Y  c #66657D",
"T  c #7C6C75",
"R  c #864F3C",
"E  c #803C7E",
"W  c #8B5443",
"Q  c #945B48",
"!  c #9E634F",
"~  c #A66A56",
"^  c #A96C57",
"/  c #927171",
"(  c #A67466",
")  c #BC7D68",
"_  c #BB8778",
"`  c #C3826D",
"'  c #4E2484",
"]  c #54248F",
"[  c #562690",
"{  c #623398",
"}  c #6831AE",
"|  c #7334BF",
" . c #763BBA",
".. c #554C81",
"X. c #575189",
"o. c #5C518D",
"O. c #5B5492",
"+. c #5E5892",
"@. c #6A4785",
"#. c #6A5482",
"$. c #655D82",
"%. c #675A86",
"&. c #61548D",
"*. c #745A89",
"=. c #635594",
"-. c #625C95",
";. c #685996",
":. c #66599A",
">. c #6A5C9D",
",. c #775393",
"<. c #5D6A8B",
"1. c #686786",
"2. c #6C6A8C",
"3. c #6E6C8E",
"4. c #73708F",
"5. c #696499",
"6. c #746799",
"7. c #757493",
"8. c #797A9D",
"9. c #7651A5",
"0. c #7346B0",
"q. c #6E67A0",
"w. c #756BA6",
"e. c #7779A4",
"r. c #7535C4",
"t. c #7837C2",
"y. c #813F82",
"u. c #953E8C",
"i. c #9D3D8F",
"p. c #A33D92",
"a. c #AD3D97",
"s. c #B53E9C",
"d. c #BB3D9E",
"f. c #973AAD",
"g. c #9D3AAF",
"h. c #8337BE",
"j. c #8937B8",
"k. c #9B3BB4",
"l. c #A63BAA",
"z. c #B53DA2",
"x. c #BD3EA1",
"c. c #C03FA8",
"v. c #874488",
"b. c #904D96",
"n. c #964998",
"m. c #A8499D",
"M. c #88748B",
"N. c #904EAA",
"B. c #9953A9",
"V. c #B542A3",
"C. c #B44FB4",
"Z. c #A255B3",
"A. c #8666A6",
"S. c #9171AC",
"D. c #AC71B6",
"F. c #A779B7",
"G. c #C041A5",
"H. c #C344AC",
"J. c #C74AB7",
"K. c #C94DB9",
"L. c #CB5DB8",
"P. c #CB61BB",
"I. c #8E5BCC",
"U. c #B85CC4",
"Y. c #966CCF",
"T. c #BB74C8",
"R. c #C14EC6",
"E. c #C955C4",
"W. c #D353CB",
"Q. c #D256C9",
"!. c #DA5AD3",
"~. c #DD5EDD",
"^. c #CB6AD8",
"/. c #DD65E3",
"(. c #E666E8",
"). c #E66AEC",
"_. c #E570EB",
"`. c #ED70F2",
"'. c #7F819E",
"]. c #96858F",
"[. c #AD8F91",
"{. c #8686A6",
"}. c #8E93AB",
"|. c #9697AC",
" X c #8E83B4",
".X c #938AB8",
"XX c #9794B7",
"oX c #9A9CBC",
"OX c #A69BA6",
"+X c #AC9DAA",
"@X c #AD8DB1",
"#X c #BEA5AA",
"$X c #9D9EC3",
"%X c #B492D3",
"&X c #98A7CA",
"*X c #A6A9C7",
"=X c #B4B6CF",
"-X c #B99AE0",
";X c #D48CC6",
":X c #D89CDA",
">X c #D0A7D7",
",X c #DD9BE4",
"<X c #EB97F1",
"1X c #D9B7E6",
"2X c #EEA9F1",
"3X c #BEC4DD",
"4X c #BAC6E6",
"5X c #CCCCDC",
"6X c #D0CBE9",
"7X c #DAD7E6",
"8X c #F6CCF7",
"9X c #EEE6F8",
"0X c #F3EFF9",
"qX c #F7F4F9",
"wX c #FDFDFE",
/* pixels */
"                                                                                                                                ",
"                                                                                                                                ",
"                                                                                                                                ",
"                                                                                                                                ",
"                                                                                                                                ",
"                                                                                                                                ",
"                                                                                                                                ",
"                                                                                                                                ",
"                                                                                                                                ",
"                                                                                                                                ",
"                                                    5 5 < - X X < 5 < ; =                                                       ",
"                                                  ; l x x x x x l k k O 3 -                                                     ",
"                                                - : / ` ` ` ` ` ! R * & @ 3 -                                                   ",
"                                              ; : 5 ! ` ~ ~ ! ~ ! * $ @ + 3 3 -                                                 ",
"                                            : <.'.'.OX#X+X[._ ]._ _ Y l k h h 9 -                                               ",
"                                            : &X4X4X4X4X3X&X}.}.'.'.'.'.b h b b :                                               ",
"                                            5 &X&Xj M._ ( ( ( ( * & & & + ; h b :                                               ",
"                                              3.'.<._ ( ~ ~ ~ ~ * @ @ @ + t h t                                                 ",
"                                                F 3X[.) ~ ~ ^ ~ * @ @ # & C e                                                   ",
"                                                u w.XX[.^ ^ ^ ~ * @ @ / {.F 8                                                   ",
"                                            8 6 u X.$XOXR Q ! ~ * @ @ M.}.n e 6 6                                               ",
"                                          5 u s p c *XOX$ R Q ~ * @ @ T '.c u u p e                                             ",
"                                        e y p u p c *XOX$ R Q W & @ @ T 8.c p p p u e                                           ",
"                                      8 y i c X.1.7.=XOX$ * W R % @ % T }.K J F p p p 6                                         ",
"                                    6 p u p Z }.*X3X3XOX# z R W % # $ ].*X{.{.8.n p u p 8                                       ",
"                                  e y p u 2.*Xw.5.e.w.6.@.#.*.*.$.U U 5.5.5.5.5.8.J i p y e                                     ",
"                                8 y p p $.'.$Xq.O.=. X$X$Xw.:.>.>.>.>.:.O.O.o.+.e.1.F p p u 6                                   ",
"                              6 y p p S *X$XO.:.>.w.6XwXqX.X:.>.>.>.>.>.>.>.+.O.O.7.e.M p p p 7                                 ",
"                            0 u p y 1.$Xe.q.:.:. X7XqX7X.Xw.>.>.>.w.^.S.>.>.>.:.O.+.5.7.K u p y h                               ",
"                          5 y p p $.{.*X5.:.q.S.=XwX7X*X&.&.&.&.=.9.T.A.o.=.&.&.O.O.+.e.1.F c u h 5                             ",
"                        8 p u p S =XXX+.:.>.w.7XwXqX Xo.N n n n n N n n n n n Z :.O.O.O.6.'.m p p u h                           ",
"                      8 u p i 2.oXe.q.:.:..X7XqX5XM.#.Z N n n n n n n n n n v n Z S S O.+.5.7.K y u h 9                         ",
"                    ; y p p J {.*X:.=.>.>.XX7X5XOXs a n n n n v n n n n n n #.*.N n N ..X.+.e.2.M s u u 6                       ",
"                  - , y p M XXe.O.:.>.:.>.>.5.D N n n n n n n d n n n n n n F.:XA n n n D O.O.5.'.M p p p e                     ",
"                  6 e y $.'.e.-.O.:.=.,.>.=.A n a s n n n a a a n n n g n.U.B.6.N v a a n M O.X.G K S p p 0                     ",
"                  6 p r 7.oX+.O.O.&.=.=.&...v a a a n n n a a a n N P m.K.Q.,.v N a a i u p ..s i Y H p p 4                     ",
"                  0 p r 4.oX+.O.O.=.=.&.N N v a i a N n n a a a v P s.Q.^.d a d n a a a p p p p i Y K p p 0                     ",
"                  6 p u 7.oX-.O.O.=.o.f N n n v *.F.U v n v a a v P d.!./.%X*.a n v s s a u p p i Y H p p 0                     ",
"                  7 p p 7.oX+.O.O.w.;.s n n v A A.<X*.d n n n N n P i.E._.<XD.I N n N v Z U p p a 1.H i p e                     ",
"                  6 p i 7.$X5.O.q.1X@Xs v N N i.K.(.,.v n n n N v N d n.J.)./.^.A n n s S.:XA u p Y K c p e                     ",
"                  0 p u 6.oX+.9.Z.<XD.a a s d p.H.K.C.A.v s a a n v n u.H.).`.~.D a a a #.A.@X*.y Y H p p e                     ",
"                  7 p q 4.oX+.N.W.(.Z.a s s N u.a.d.~.E.U N a a s N A u.H.(./.U.D a a a a P ,XD.r Y H p p 7                     ",
"                  e p q 4.oX-.N.W.(.Z.a n n N d g d.x.P.,X*.a i s f a.s.H.).B.A d a p p g d.(.B.r H S a p 7                     ",
"                  1 i r 4.oXo.,.N.R.l.y.d a v p A E a.P.2X*.a n g u.d.K.E.B.@.a a p a E i.d.N.@.y H B y p 7                     ",
"                  1 i i 3.}.-.&.@.V.H.V.I d s v N f p.L.<XA.A n u.d.d.!.^.@.s p a a f V.G.s.d a c H B q r 7                     ",
"                  1 i p s J |.F.R.~.(.(./.B.a v I a.d.K._./.U.N u.d.d.!.)./.b.a p g V./.K.d.s.v.H b i r i 7                     ",
"                    6 i y p 2.S.T.Q.W.W.W.C.B.v.u.d.d.J.).!.J.y.a.d.d.K.!.).U.B.B.P.>X2X^.f.b.L m i y r 7                       ",
"                      0 q y i 4.oXm.s.d.z.J.(.H.d.d.d.J.(.J.d.x.d.d.d.d.H.~.(.(.`.2XwXqX-X .K b q r r y                         ",
"                        1 i r a Z 2.b.V.j.k.H.c.d.d.d.d.c.x.z.d.d.d.d.d.d.G.c.L.8XwX9XY.9.K s i r r 4                           ",
"                          6 r r i B L n.h.h.g.k.l.d.d.d.d.l.g.g.g.g.g.g.C.;X;X:XqX7X-XY.>.n i i q 0                             ",
"                            0 q r r B 1.0.r.r.r.j.z.z.z.z.j.| | | | | | I.0XwXwXqX%Xh.oX3.q q q q                               ",
"                              1 r p p a 2.9.r.r.h.h.h.h.h.{ ] [ [ [ ] ' 9.0XwX9XY.Y..XG i i i 0                                 ",
"                                2 r i i C &.0. .r.r.} } } ] ' ' ' ' ' ' { *X>X-X0.6.7.i r r 6                                   ",
"                                  q q r i B 2.0.t.| [ ' ' ' ' ' ' ' ' ' ' ' } 0.J c r r r r                                     ",
"                                    1 q i i a %.;.%.J F J F U $.$.Y %.%.U F D D i i q r 2                                       ",
"                                      2 q q i S C V V V B V V H H U H H H b B b i r q 2                                         ",
"                                        2 q r r q i i q r r r r i q r r r r r r r r 0                                           ",
"                                          1 r q i q q i r r r r i q r r r r r r r 1                                             ",
"                                            2 2 1 2 2 2 2 2 1 1 2 2 2 2 2 7 2 2 7                                               ",
"                                                                                                                                ",
"                                                                                                                                ",
"                                                                                                                                ",
"                                                                                                                                ",
"                                                                                                                                "
};
