/* XPM */
static char *_2c7145a249746c4f8bf7913b9565d64KOilVdCtF1dYCWRX[] = {
/* columns rows colors chars-per-pixel */
"64 64 223 2 ",
"   c None",
".  c #131C35",
"X  c #151E39",
"o  c #181F3B",
"O  c #17203D",
"+  c #19213D",
"@  c #2B2A3F",
"#  c #56332D",
"$  c #553A3A",
"%  c #643626",
"&  c #673929",
"*  c #603B32",
"=  c #72402E",
"-  c #6C4034",
";  c #794636",
":  c #172242",
">  c #1A2545",
",  c #1E2847",
"<  c #1C2748",
"1  c #1E2A4C",
"2  c #222643",
"3  c #262847",
"4  c #292C44",
"5  c #212C4E",
"6  c #2B2C4C",
"7  c #312E4F",
"8  c #28314B",
"9  c #2B334A",
"0  c #383449",
"q  c #212D50",
"w  c #2C2E51",
"e  c #332F50",
"r  c #2E3552",
"t  c #2E3557",
"y  c #343153",
"u  c #3A3456",
"i  c #313953",
"p  c #3B3955",
"a  c #363459",
"s  c #3A365B",
"d  c #343D59",
"f  c #3E3A5B",
"g  c #3E3C60",
"h  c #403A4E",
"j  c #41375A",
"k  c #463C5A",
"l  c #42395D",
"z  c #433C63",
"x  c #4B3A64",
"c  c #473F69",
"v  c #4C3E6A",
"b  c #533B69",
"n  c #593A6B",
"m  c #563478",
"M  c #633A6F",
"N  c #673B73",
"B  c #783A7A",
"V  c #3C465E",
"C  c #3D4765",
"Z  c #3B4875",
"A  c #514147",
"S  c #44415E",
"D  c #634454",
"F  c #6F5152",
"G  c #454164",
"H  c #494767",
"J  c #4B4865",
"K  c #4A426A",
"L  c #53496D",
"P  c #495166",
"I  c #53526D",
"U  c #4B4472",
"Y  c #4E4976",
"T  c #554876",
"R  c #5B5A75",
"E  c #5A5678",
"W  c #704D66",
"Q  c #66477C",
"!  c #635B79",
"~  c #796364",
"^  c #65637D",
"/  c #7C6C77",
"(  c #834C3B",
")  c #8B523F",
"_  c #813A7E",
"`  c #8A5241",
"'  c #975E4C",
"]  c #845B52",
"[  c #9A6759",
"{  c #A56A56",
"}  c #A66A56",
"|  c #B0725E",
" . c #916C68",
".. c #A3756A",
"X. c #B97C68",
"o. c #AB7D73",
"O. c #4E2285",
"+. c #512986",
"@. c #533282",
"#. c #5A2797",
"$. c #7D3D80",
"%. c #62339C",
"&. c #6935AC",
"*. c #6B2FB3",
"=. c #753BBD",
"-. c #4C4B84",
";. c #554C84",
":. c #574D89",
">. c #594E8A",
",. c #5A528D",
"<. c #5C5888",
"1. c #5B5493",
"2. c #5F5894",
"3. c #6B4783",
"4. c #635788",
"5. c #755789",
"6. c #704B95",
"7. c #7A4A91",
"8. c #615B96",
"9. c #645A98",
"0. c #755A9A",
"q. c #686885",
"w. c #6B6984",
"e. c #706C8F",
"r. c #71718F",
"t. c #6C6795",
"y. c #6C679C",
"u. c #756C9C",
"i. c #767393",
"p. c #787498",
"a. c #7B7C9B",
"s. c #6E47A7",
"d. c #6A6FA1",
"f. c #716BA2",
"g. c #7976A5",
"h. c #7635C4",
"j. c #7B35C2",
"k. c #883C84",
"l. c #943C8B",
"z. c #9B3B8D",
"x. c #95359D",
"c. c #A23C91",
"v. c #AC3E99",
"b. c #B43D9B",
"n. c #BA3D9E",
"m. c #8638BB",
"M. c #9539B3",
"N. c #A63AA9",
"B. c #B33EA1",
"V. c #BA3EA1",
"C. c #894D9B",
"Z. c #904D90",
"A. c #865798",
"S. c #A8459D",
"D. c #B5419E",
"F. c #847E9E",
"G. c #8952AC",
"H. c #9853A9",
"J. c #B944A6",
"K. c #B04EB1",
"L. c #A656B5",
"P. c #8B76A5",
"I. c #AB6DB9",
"U. c #C344AB",
"Y. c #C248AA",
"T. c #C559AB",
"R. c #C64AB6",
"E. c #C954BC",
"W. c #C761B1",
"Q. c #8D3BC2",
"!. c #8D4FCD",
"~. c #BC5FCA",
"^. c #9670CA",
"/. c #C94EC4",
"(. c #C559CB",
"). c #D458CC",
"_. c #C65ED1",
"`. c #D95CD5",
"'. c #E15FDE",
"]. c #C669C9",
"[. c #D963DB",
"{. c #E073DC",
"}. c #DC65E3",
"|. c #E667EA",
" X c #E775ED",
".X c #EC6AF1",
"XX c #7E819E",
"oX c #9A8285",
"OX c #B08D8C",
"+X c #8281A3",
"@X c #8786AD",
"#X c #9295AE",
"$X c #888CB4",
"%X c #918DB6",
"&X c #8C95B7",
"*X c #9697B5",
"=X c #9C9CBC",
"-X c #A79BA5",
";X c #A686B6",
":X c #BDA0A1",
">X c #9B95C4",
",X c #AD8CC9",
"<X c #92A0C1",
"1X c #A3A7C5",
"2X c #B6B4CB",
"3X c #A7B3D0",
"4X c #B8BAD5",
"5X c #C98CD7",
"6X c #D797DC",
"7X c #E8BFDF",
"8X c #EB8CEF",
"9X c #C8ADE8",
"0X c #E8A8EE",
"qX c #BBC6E4",
"wX c #C4C1CF",
"eX c #C5C6DB",
"rX c #D4CEE9",
"tX c #EED5F0",
"yX c #E4E3ED",
"uX c #EDECF0",
"iX c #F5E9F7",
"pX c #F8F5FB",
"aX c #FDFCFD",
/* pixels */
"                                                                                                                                ",
"                                                                                                                                ",
"                                                                                                                                ",
"                                                                                                                                ",
"                                                                                                                                ",
"                                                                                                                                ",
"                                                                                                                                ",
"                                                                                                                                ",
"                                                                                                                                ",
"                                                                                                                                ",
"                                                                                                                                ",
"                                                    i A p p p V p 0 9 , @                                                       ",
"                                                  <  .X.X.X.X.X.' ` ( - # +                                                     ",
"                                                > < [ X.| | | | ' ; = = # 8 ,                                                   ",
"                                              V Z P oXOXo....... .] F - $ r 8 1                                                 ",
"                                            1 <XqXqXeXeXqX1X*X-X#X#X#X^ P P P C >                                               ",
"                                            1 3X3Xd.-X:X-XoXoXoX .~ ~ F A r V C <                                               ",
"                                            1 &X$XZ ..X.} } } } ; % % & # 3 V V <                                               ",
"                                              q <.3XOXX.} } } } ; # & # $ P d <                                                 ",
"                                                C @XOXoX} } } } ; % & F  .J r                                                   ",
"                                                t -.&X-X' } } } ; % % oX$XV 6                                                   ",
"                                            a a a z 1X-X& ) ' } ; & # / XXf a a a                                               ",
"                                          t a a s G 1X-X& ) ` ' ; % % / XXf a a a t                                             ",
"                                        a a s g K T 1X-X& ( ` ) = % & / g.G g g s a a                                           ",
"                                      a a s G XX=X3XeX-X* ; ` ) = % % oX1XXXa.r.C a a a                                         ",
"                                    r a s T p.@X%X1X>XF.D F W ~ D D D i.&Xg.g.i.E J a a a                                       ",
"                                  a a s c u.4Xf.1.2.9.y.y.1.1.1.2.2.1.1.1.1.1.2.XX<.s s a a                                     ",
"                                a g z K =X*Xf.1.1.2.4XrXrXP.1.1.2.1.1.1.1.1.1.1.y.i.r.G s a a                                   ",
"                              w a z E i.=X@X1.1.y.*XyXiXeXg.:.1.1.1.1.1.1.1.1.1.1.y.p.<.K a s r                                 ",
"                            a a s s p.4Xy.1.1.:.%XaXaXeX8.:.:.:.:.1.1.:.;.:.,.1.1.,.,.XXq.s a y r                               ",
"                          6 s s K #X@Xf.8.1.2.4XyXpX1Xu.v c z c K U U c z K K U ,.,.>.8.t.e.g a 7 6                             ",
"                        8 i s I e.1XP.,.1.y.%XyXuXwXt.Y z z l l z z z z f g g G ;.;.T -.t.a.E G y a 9                           ",
"                      a a s z F.4Xy.1.1.1.*XpXaX2XK G G G z z z z z z c z z z z z z c >.1.8.XXq.a a a a                         ",
"                    < a s K g.F.g.9.1.1.1.f.%XF.^ z z x z z z z z z g C.L.c z z z z c U ;.1.y.t.q.C g a e                       ",
"                  < q a H q.$Xg.1.1.1.1.1.1.;.z x N Q Q z z z z z v 3.L.L.v z z z z z z U >.1.y.a.Y g a s r                     ",
"                  w a e q.*Xy.1.1.:.:.>.1.-.z l N D.6X,Xz l j j z 3.}.7.x l z z z l j l z c ,.1.>.q.E a s 6                     ",
"                  w s s i.=X9.1.1.:.:.:.Y U z l x B K.].I.Q p j B S.|.C.s u k z z l j j l z U ;.>.w.R a a 6                     ",
"                  6 s s i.=X9.1.1.:.:.Y z z z l j k S.W.0X5.f l k.R.`.Z.T Q K z z l l j l z z K T w.R s a 6                     ",
"                  3 e z i.=X4.:.:.1.;.x k l f z f f z.R.|.7.z z l.V.U.).|.6XA.j s z z z l j j l K q.R e y 6                     ",
"                  3 e z i.=X8.:.,.,Xu.f j s j z n Z.R.E.C.T z z N k.D.R.).8X5XP.x z x $.Z.H.b j K q.R 6 y 6                     ",
"                  3 a l i.=X,.>.0.0X;Xz f j l x $.U.`.L.j z z z j n c.v.J.`.8X6XU l v c./.[.3.L G q.R y y 6                     ",
"                  w s s i.=X8.G.(. XL.j z z x l.U.|.6.K z l j l z z b x M J.`.[.U l j x k.Y.6XP.j ^ R s s 6                     ",
"                  6 s u i.*X8.H./.L.3.j j z v c.R./.L.7.z l j j l z z M l./.'.[.n l j s B U.8XI.l ^ I s a 6                     ",
"                  6 s j i.=X4.G.K.N f j j z x l.b.V.`.].L z j l j l v l.R.|.}._.U l l k _ V.).H.p R J y a w                     ",
"                  6 y j i.>X<.H./.v.B z s j j x B n.'. X6X3.u z l n c./.|..XH.n x s x z.b.b.N x j R I 7 y 6                     ",
"                  3 y s R a.p.I.[.J.N.C.C.3.j j M _ R.{.0X5.s x M _ n.`.}.K.Q u j n _ R.Y.b._ M J I S 7 7 6                     ",
"                  3 e s s K #X5X8XJ.R..X|.L.x x x x c.W.0X0.x j l.n.n.)._.L x x x Z.Y.|.).n.n.Z.R p e y 7 6                     ",
"                    2 7 i s I +X,XD.U.R.U.E.~.B.c.c.n.E. XK.c.c.b.n.n.U.R._._._.(.6XtXiX5X=.5.L p e a u 2                       ",
"                      2 6 y p E F.Z.D.D.S./.`.U.V.V.V.R.|.R.V.n.n.n.n.n.U.).`.[.8XtXaX9X^.s.I S e e e 6                         ",
"                        2 7 y s k ^ Z.J.m.m.V.B.V.V.V.R.|.R.V.V.V.V.n.n.n.U.D.T.pXpXiX!.6.R s 7 e e 3                           ",
"                          + 7 y u S ! A.=.Q.m.m.M.n.n.N.!.Q.m.Q.m.M.J.n.T.7XtXtXaX9X^.>Xe.f y y 7 2                             ",
"                            3 7 y p S 4.s.s.h.h.m.N.N.x.*.*.*.*.h.=.N.D.K.pXaXpXrX,XG.+XE 7 e 7 6                               ",
"                              3 e e u k q.0.h.h.j.=.#.O.O.O.O.O.*.h.=.h.!.iXaXtX!.^.#Xf e 7 y 3                                 ",
"                                2 e y u K E 0.=.*.#.O.O.O.O.O.O.#.#.#.#.&.0.^.^.s.;.I a 7 7 2                                   ",
"                                  3 e e u J q.s.&.@.@.@.@.m @.@.@.@.+.@.m m %.&.I f 7 e 7 6                                     ",
"                                    2 e e u k ^ ! ! ! R ! R ! q.w.w.w.w.^ R R I u e e e 3                                       ",
"                                      2 7 y u S J S S S S S S J L J J J J k S f y y 7 2                                         ",
"                                        3 7 e e 7 e y e y e e e e 7 e 7 7 7 e e 7 7 6                                           ",
"                                          2 y e y 7 e e y y y y y 7 e y y e y e y 3                                             ",
"                                            2 2 2 2 2 2 2 @ + , @ 2 2 2 2 2 2 2 2                                               ",
"                                                                                                                                ",
"                                                                                                                                ",
"                                                                                                                                ",
"                                                                                                                                "
};
