/* XPM */
static char *df8795055942441098418fdedb9588f99YeyqrQkVeAwRe5z[] = {
/* columns rows colors chars-per-pixel */
"64 64 209 2 ",
"   c #080705",
".  c #141515",
"X  c #151A1B",
"o  c #191C1C",
"O  c #161717",
"+  c #1B1205",
"@  c #291808",
"#  c #201F1D",
"$  c #281F14",
"%  c #21201E",
"&  c #38250A",
"*  c #191F20",
"=  c #1C2324",
"-  c #1E2728",
";  c #1F2829",
":  c #232423",
">  c #232B2C",
",  c #2C2C2B",
"<  c #252727",
"1  c #302E2C",
"2  c #33322E",
"3  c #3E372F",
"4  c #252F30",
"5  c #282F30",
"6  c #263133",
"7  c #2A3335",
"8  c #2B3739",
"9  c #2D3A3C",
"0  c #353432",
"q  c #383734",
"w  c #3A3936",
"e  c #323C3D",
"r  c #3C3C3A",
"t  c #452D0D",
"y  c #493516",
"u  c #50330D",
"i  c #6B3F03",
"p  c #423E38",
"a  c #4E3C27",
"s  c #774C16",
"d  c #664A19",
"f  c #584525",
"g  c #444139",
"h  c #4D4124",
"j  c #69522F",
"k  c #2F3E40",
"l  c #323F41",
"z  c #393F41",
"x  c #344244",
"c  c #3B4445",
"v  c #364649",
"b  c #394749",
"n  c #37494C",
"m  c #3B4A4C",
"M  c #3D4E51",
"N  c #374C50",
"B  c #3E5154",
"V  c #3F565A",
"C  c #2F4447",
"Z  c #444443",
"A  c #434B4C",
"S  c #4B4D4C",
"D  c #444746",
"F  c #53514E",
"G  c #434F51",
"H  c #425255",
"J  c #4A5253",
"K  c #435659",
"L  c #4B5659",
"P  c #455A5D",
"I  c #4B5A5D",
"U  c #535656",
"Y  c #535C5D",
"T  c #595B58",
"R  c #4F4E4B",
"E  c #636256",
"W  c #465D61",
"Q  c #4B5E61",
"!  c #515F61",
"~  c #4C6265",
"^  c #4D6669",
"/  c #4E686C",
"(  c #466065",
")  c #526265",
"_  c #5B6364",
"`  c #526669",
"'  c #53696D",
"]  c #5B6A6C",
"[  c #5A6768",
"{  c #546D71",
"}  c #5A6E71",
"|  c #567175",
" . c #5B7275",
".. c #5B767A",
"X. c #5D797D",
"o. c #557478",
"O. c #4F6F74",
"+. c #636B6C",
"@. c #6A6C6A",
"#. c #696663",
"$. c #777869",
"%. c #656F70",
"&. c #627275",
"*. c #6B7373",
"=. c #627679",
"-. c #647A7D",
";. c #6B7A7C",
":. c #6B7678",
">. c #727C7D",
",. c #717574",
"<. c #835827",
"1. c #9B6932",
"2. c #9A6525",
"3. c #B3752C",
"4. c #A97418",
"5. c #7A8277",
"6. c #BE9936",
"7. c #CC8929",
"8. c #8B8B78",
"9. c #D2B148",
"0. c #E6C84D",
"q. c #5D7C81",
"w. c #637D81",
"e. c #6A7E81",
"r. c #767F80",
"t. c #648185",
"y. c #6B8285",
"u. c #668589",
"i. c #6C868A",
"p. c #6C898D",
"a. c #678A8F",
"s. c #738284",
"d. c #7B8484",
"f. c #728689",
"g. c #738A8D",
"h. c #7C8B8D",
"j. c #798688",
"k. c #6D8D91",
"l. c #748D91",
"z. c #798E92",
"x. c #769195",
"c. c #7C9295",
"v. c #769599",
"b. c #7C969A",
"n. c #7C999D",
"m. c #77989C",
"M. c #6F9398",
"N. c #7E9DA1",
"B. c #7FA0A4",
"V. c #818D8E",
"C. c #898D8C",
"Z. c #818F90",
"A. c #849294",
"S. c #899495",
"D. c #829699",
"F. c #8A9799",
"G. c #85999C",
"H. c #8A9B9E",
"J. c #929C9D",
"K. c #959796",
"L. c #95988D",
"P. c #839DA1",
"I. c #8B9EA1",
"U. c #919EA0",
"Y. c #85A1A5",
"T. c #8DA1A4",
"R. c #86A4A8",
"E. c #8AA6AA",
"W. c #8EA9AD",
"Q. c #87A8AC",
"!. c #92A3A5",
"~. c #9AA4A5",
"^. c #95A6A9",
"/. c #9BA7A9",
"(. c #94A9AC",
"). c #9BAAAD",
"_. c #93AEB1",
"`. c #9EAEB0",
"'. c #95B1B5",
"]. c #9AB2B5",
"[. c #9CB5B9",
"{. c #A1ACAE",
"}. c #A1AFB1",
"|. c #A4B2B4",
" X c #AAB4B5",
".X c #A4B6B9",
"XX c #AAB7B8",
"oX c #A4BABD",
"OX c #ACBABC",
"+X c #B2BCBD",
"@X c #B5B9B9",
"#X c #AABEC1",
"$X c #A6BEC1",
"%X c #B3BFC0",
"&X c #ADC2C4",
"*X c #AFC7C9",
"=X c #B4C2C4",
"-X c #BAC3C4",
";X c #B3C6C9",
":X c #BAC6C8",
">X c #BCC9CB",
",X c #B4C9CC",
"<X c #BCCED1",
"1X c #BFD0D2",
"2X c #C3CBCC",
"3X c #C1CED0",
"4X c #C4D2D4",
"5X c #C9D6D8",
"6X c #D2DDDF",
/* pixels */
"~.2X-X-X%X-X@XOXOX X{.{. X X{.~.}.{.{.~./.{.T.~.)./.~.~.~.~.U.J.F.~.U.H.J.J.U.U.~.H.J.H.J.J.U.U.U.J.J.U././.J.S.~.).U.U.U.~.}.%.",
"}.(.N.W._..X[.OX).Y.W.m.T.E.g.;.f.-.s.g.x.f.q.5.y.y.=.t.k.b.l...} i.x.w.w.e.u.=.-.i.x.-. .i.v.e.} X.e.i.i.p.e.{ -.l.N.l.x.w.l.P ",
").l.t.k.m.W.W.-XK.~ k.b.m.b...J.T C | { v.u.t.J.@.x o.i.i.w.' K.Z N w.^ o.t.^ d.#.x o.( ^ w.o.C.U C { q...o.^ d.#.k w.q.O.K | n ",
"OXY.o...m.W.].F.S ' R.Y.(.R.v.Y > P X.k.c.l.l.) 0 W t.p.i.../ H = K o.'  . .^ H > v ^ P / w.u.Y : K q.q.p.w./ H , n w.o.^ W { K ",
"OXY.^ X.m.].;X.XR.N.E.(.].(.R.m.k.i.X.l.k.x.m.t.-.p...x.i...X.w.{ { O.O.o.{ { W ( ( ^ P / ..i.X.^ e.X.w.k.u.w.O.Q | q.| { q.q.K ",
"}.].k.m.'.c.&.&.` L K H H A m H H v k m l x b l 9 9 9 b b x x b l 8 9 8 8 e 8 4 6 ; 6 7 8 e c x l b x x b b b l l 4 ;...O...| M ",
"{._.E.x.'.b.m x 7 > > - = = : : * * X * O . * X X = X = = = o X o = * X X X X . X X X * * = : = * = = = * * * * * - I.w.W / / k ",
"OXE.@XT N.v.I Y J m c l e e e 9 6 > - ; ; = = = - > > 6 5 > > ; - 4 - = - - = * = = = 6 ; 4 8 6 4 4 > > > : = = * 4 U.{ r.+.V v ",
"OX[.[ L ].G.) ` ~ ! I H A m c z 8 9 9 8 > > 4 > 6 7 8 0 7 4 > 4 4 4 4 > 4 4 = = ; = - 6 7 6 7 7 8 4 4 > 4 > > - = 4 ^.w.! q n B ",
"OX$XR.'.,Xx.I &.] =.f.;.&.] Y H v m A m 7 e v 8 e b k m b k 9 e 8 l l 8 8 8 4 8 6 6 8 k x l 9 l x l 9 8 9 8 7 7 8 8 U.a.P G W N ",
"OX=X$X&X*Xm.I &.' i.G.n.z.f.;.~ M K K H k m K m B K M K I H m n l x v M x k 6 k v l n M m N H H M K v v l x 8 k l l ~.P.l.a.` n ",
"OX$X&X<X,XT.) ] &.t.G.n.x.f.y. .Q ` ` ~ n K K M K I ` ) ) ) ! P P H m M K v k k n N K B K W ) ^ P P M K M M G m N b ^.P.q.o.q.K ",
"+XoX&X,X*Xv.I ~ ;.x.x.m.Y.G.z...' `  .} Q W m n K K W ' ) ) ) ` } ] H n M n n k N K P N P ` ~ ' Q Q K P Q ! ) P P A ).R.o.o.u.Q ",
"OX;X$X;X<Xg.m I -.G.m.n.Y.H.!.t.~ ~  .~ P ] B B P I K ' ` ( I ] } } Q P G N v B W W ` B ^ =.K B ^ { Q P Q ) ! L I G {.R.q.{ a.K ",
"XX;XoX,X4Xm.b ` =.b.R.W.v.m.c.i.P V { ` K Q M K ~ ' Q ~ ~ } ~  .;.r.' Q W N b Q P Q { ^ ' ^ K B Q } ` Q P [ ) P ! L  XR.O.o.k.K ",
"OX&X2XS.*XT.K ) &.t.W.].Y.R.Y.5.v M  .' B ~ ^ H M P ~ P / -.:.;.e.e.=.} ` ^ W Q P Q ^ ` ' ^ W ' ' { } } Q ! [ ! ! I }.n.l.&.o.M ",
"+X:XC.Y ;X(.I `  .c.(.].&XOXY.' x n B K (  . .I m P | ' ' i.h.s.-.y.h.f.y.f.} ~ W W Q K } w.i.i.w.=.e.=.} ' ) ] ) Y }.a.V.F m H ",
"%X1X!.XX5X!.!  .y.(.(.&X>X[.v.P n n n P ' &.| P H P P ' ( =.z.c.-.f.F.z.z.D.e.^ K Q -...g.z.b.A.f.e.e.e.&.&.%.] [ I  X$X} b q.P ",
"-X4X4X4X6X).[ 5.f.!.Y.oX=X.Xv.B m m P ^ { .. .' I ( W  .=.-.g.g. .f.e.g.D.I.c.g.X.o.y.l.I.D.A.c.c.z.g. .' =.;.%.} I  X#X'.v.k.Q ",
"-X4X4X5X6X|.] t.h.!.].].:X=Xx.' / P ^ |  .a.5.} ~ | | g.c.f.G.c. .i.g.c.H.G.G.G.c.z.g.z.I.H.G.g.b.z.g.{ e.e.e.&.] G  X;X[.x.k.^ ",
"%X3X:X4X6X}.] s.F.|.oX.X:X:X_.n.D.f.w.-. .w.-.~ ( ' | g.c.c.D.c.u.y.z.U.T.I.I.b.l.D.I.I.U.^.I.b.F.F.z.s.h.z.j.e.=.I /.$X#X_._.{ ",
"%X4X,X1X6X X%.;.F. X+X=X,X%X`.I.!.H.g.|  .-.| ^ '  .&.G.G.=.t.G.c.D.G.^.!.I.I.I.c.H.!.^.^.).^.I.I.I.F.z.z.Z.h.d.j.]  X_.E.`.oXe.",
"-X5XXXXX6X|.] %.Z.XX-X2X=X.X`.(.G.G.h. ...t...=.t.-.c.{.D.i.g.D.l.b.G.^.I.!.}.^.T.^.^./.).`.U.I.U.~.U.H.Z.Z.Z.e.;.+.@X[.P..X;Xh.",
"-X-X@X#.=X)._ &.Z.OX>X2X;XoX|.G.g.g.D.c.i.y.i.f.-...z.D.D.T.b.i.y.g.c.(.).`.`.|.|.`.).^.(.(.U.).(.).~.G.Z.e.-.&.` I  X$X XC.U.V.",
"@X3X,.U -XH._ d.;.D.%X3X2X=X(.D.c.i.G.H.g.w.y.b.g.i.G.c.G.H.c.!.b.z.c.|.`.).).(.).`.}.`.|.).).`.).{.{.H.z.j.&.' ` G /.(.:.S d.s.",
"%X5X+X%X5XZ.Y :.j.!.T.-X2X-XI.b.G.i.G.).T.).).I.G.!.H.).).).b.^.I.!.!..X|.`.OX|..XOX%XOXOXOXOX%X X|.).~.U.F.f.} W L }.R.{ w.OXe.",
"+X1X:X4X3XS.J %.>.F.|.#X=X#X`.I.|.H.!.OX+X-X@X).c.T.D.).=X|.b.G.I.^.^.).|.XXZ.>.>.:.>.;.:.>.r.:.:.F.)./.~.S.e.] L H }.[.N._.N.` ",
"OX>XOX-X4XV.A %.r.S.}.%X%X`.}.^.T.T.H.).!. X].T.c.G.f.T. XG.H.G.I..X(.!.`.).A r r p Z g D Z r q o J ~.).{.~.J.e.` b ~.R.q.W.x.B ",
" X=X|.;X2Xj.c %.;.Z.^.XX|.G.^..XG.G.!.{. X|.h.y.G.c.e.g.|.).).).I.`.!.D.XXU.A D Z % 0 q r , g % . S ).J.r.>.V.=.) G I.N.q.k.p.v ",
" X=X&X>X>Xs.A @.>.h.H.`.).T.).%XT.c.!.|.oX|.c.g.G.c.-.g.|.OX).!.A.`..XI.OX}.J p 2 % 0 q q , 2 O . U L.s d d y w ) H H.m.a.q.{ N ",
"@X3XOX-X2Xs.A :.>.j.A.).}.T.b.OX^.g.!.].{.].T.T.!.g.t.|.OX XOXoXD.OX).`.G.^.U w O : 2 2 0 , % , . L $.d 0.1.@ O ! Y U.N.q.o...n ",
"@X2X@X,. X:.c *.,.} &.D..X).^.|.H.G.^.). X+XOX).!.).).-X2X=X-X-X(.`.b.^.I.D.F 0 : , , , w r 3 , O S h.F 0.s   O [ Q !.i.i.%.{ W ",
"+X%X@.r U.&.e ! ) ) ' -.T.H.H.E.c.I.).(.`.OXOXI.T.OX.XXX-X+XOX-X|..X(.|.^.g.A , # 2 a p g g 1 : O J ).8.9.u o o z J !.t.>.Z ' &.",
"@X=Xf.f.c.) e L Y Y ] f.G.c.c.T.f.D.z.l.I.`.T.!.XX|.^.|.=X|.).`.}.}.I.`.OXI.R : O a <.<.1.f : 2 O S /.8.9.t x 6 > c ^.[.w.Y b.~ ",
" XT.P.N./ x 8 J L Y ] f.G.I.!.G.f.c.y.c.G.^.T.^.-X`.G.).OX).!.^.).H.D.!.OX}.S : O f <.@ 2.d : p * D U.C.9.t A z < b /.].'.&XR.} ",
"U.} l.P.{ k 4 A L ) =.g.(. X^.n.b.c.T.).).^.|.`.|.`.(.^.|.T.^.].b.I.I.H.|.U.Z 1 O u 7.1 7.<.> q . D U.8.9.u c e = H }.(.R.OXW.| ",
"D.` X. .^ n > c I P =.D.T.`.!.|.}.I.|.%XXX).}.`.!.|. XT.c.c.). X^.).D.f.I.=.z Z * j 3.s 3.<.> 2 . D ~.$.6.t m e = A |.&X|.[._. .",
"Z.=./ W W v - e c A ' :.c.!.I. X%XXXOXOXOX|.^.).`.`.^.l.y.G.^.G.G.D.I.w.i.{ p R 8 j 3.1.1.a > 2 O D !.$.4.@ A e = H XX[.[.R.R.~ ",
"V.o.K B B k < 7 c m ~ =.g.T.T.!.XX.XOX%XOX|.T.!.|.|.^.l.D.G.l.y.i. . .} ' ^ z Z r w p p a , , w O z P.#.s + D c = c  X&XM.M.v.^ ",
"V. .K.e k k > 7 e M W -...G.^.!.^.|.OXXX.X`.^.`.XX|.}.E.G.b.-. .X.` K { } { z p 0 g p w w 0 w r O A >.y @   $ o > m |.&XT.:...} ",
"S.} J : v x - 4 e b P =...g.c.x.I.`.|.|.).).).OX`.|.`.!.G.l.w.w.-.P K ` ^ ^ e 0 , r r q w 2 w r . m T &     +   = Y OXoX~.R ` f.",
"Z. .M N B 9 - 6 x b H { =.t.c.g.I.).^.^.^.).).`.^.^.).^.!.l.-.t.y...W ^ ~ ^ q g F 2 q 0 3 r T 0 O v :.r O .   . > Y +X&Xg.) q. .",
"V.-./ W B 8 - 7 e v b P ' i.G.H.!.T.!.I.^.^.).I.G.I.^.P.H.c.l.g.w.e.` { | ^ c F c , w 0 r r F % O c i.f.e.*.0 o 0 ! -X#X'.=X'. .",
"h.w.W K V 9 - 6 9 v P ~ { z.c.D.G.G.!.T.T.I.T.D.z.P.A.A.c.g.g.l.-.o.t.X.' I 7 % . % % % % % . O . c f.g.D.D.j.e 7 _ -X>X[.&X;X=.",
"A.o.^ W V 8 - 4 7 m P ` ;.t.g.c.g.b.T.G.H.G.c.c.c.c.D.G.c.i.t.=.w.g.p.| ' ^ 7 X X . X X . X * = o m g.f.e.f.z.e.&.&.-X4XoX,X<X;.",
"F.q.^ ' P 9 * 4 7 m ) -.g.w.z.g.g.h.G.H.H.D.G.g.g.g.H.z.c.z.y.l.g.l.i.t. .K ( P Q ( K B ^ B ! =.;.;.l.f.h.g.j.f.y.] -X>X#X#X$X;.",
"F.y.( / P 8 * ; e G ] ;.&. .:.f.g.g.H.!.G.c.G.D.g.f.H.c.i.z.=.i.g.i.p.y.X.P ( -. . ...u.X.u.b.G.n.c.u.g.h.i.e.:.&.Y @X*X.X].[.=.",
"Z.=.V.v W v = 6 c H ) &. .|  .t.f.t.f.h.c.h.f.c.z.g.z.G.y.y.u.{ t.g.w.w. .( P ' ( ' X.X./ t.p.t.y.g.t. .-.-. . .' I OXoX[.g.k.' ",
"Z.-._ < K K : 4 l G I ] &.-.-.-.e.=.e.e.g.g.y.g.y.e.b.z.y.{ u.{ ' i.^ ^ ^ ^ ' ^ | { Q K Q ^  .q.X.y.-. .' }  .) } L |.E.J.T I ' ",
"F.u.H H { M 4 7 e m P ) } ;.:.-.e. .w. .e.e.y.e.y.e.z.z.y.~ W -.'  .` P B Q ^ ^ { / Q W W Q  .=.=...y.=.] ] ' ) ] J ).Q.~ x -.~ ",
"Z.X.{ X...N : 4 7 l G Q ] ] =.-.) ` ] ` } =.=.e.e.w.w.e...) H { { ' ' Q W ^ ` Q ^ W K B W Q Q w.-.' ' ' Q ~ ~ ! ) b U.p.o.t.p.K ",
"S.p.o.e.u.M = > 7 8 G L Q Q ] [ K P W Q '  .} } =.} -.` ' ' N Q / Q Q P K W Q W W H K W ' Q Q  .~ H H B B H J I K c !.w.| ..q.B ",
"F.k.u.w.w.M - > 4 4 b G M H Q K b M P Q Q } ) ` ` ` } K P H x P W K B N M W H K z x K W ! ` W L K m b x m b M H b x F.i...t.t.n ",
"z.e.i.-.q.B = - = 4 9 M G G H m M m Q Q ` ! ` ) P Q Q K m M m N G M B G b K G n l l B M z W N N n n v x v m b c b q D.p.^ ^ ..N ",
"Z.u...i.N.Q > - - ; 8 A G b m x M P [ ) ] [ Q P H G H G b x b m x K N G b b N v l 8 M M v B G m x v v x x v b x x 7 h.p.( V | n ",
"H.g.{.U l.] , : - 4 8 b H M x b G P ! Q ! Q G N K m M P H b v m 9 b N G m l l l k 8 v v z m m m x c c x e x c x e 7 A.-.y.) B x ",
"H.l.! 7 e.` = * = ; 8 l A v k l m G Q K G G b x m b n G b l 8 l 9 6 x b x k 9 8 k l l l l l z l l l l l 9 8 l 8 9 6 A...@.w k n ",
"/.T.-.p.m.Q c D b A A G J J J J ! ! +.[ [ ! Y ! ! L I ! I J G J J H J G G J A G S A A A A b D c c A D c D c D c c c A...n 7 ~ m ",
").T.P._.R.(.OX.X}.}.{. X|.|.%X%X:X:X>X;X>X%X%XOXOXXXOX%XOX}.}.|.XXXXOX}.}.}.).`. X}./.{./.).{.).~.).`.}.).).{.).).~.!.` / ^ | n ",
"/.W.T._.R.b.k.t.w.q.X.p.b.b.N.b.W.W.`.N.N.v.k.u.o.p.q.k.l.w.w.w.i.l.w.X.w.=.q.w.| w.q.w.w.....{ Q ..e.w.X.w.u.X. ...' N P P ~ C ",
").R.N.W.Y.k.O.D.*.n ..u.k.v.k.{.@.X.R.b.w.M.k.U.@.N { { w.t.o.J.U Q ^ / { o...S.@.B q.| q.| B r.U B q.{ ' ..q.h.@.n ^ n B P ^ C ",
").N.k.Y.P.k.q.[ 2 x q.l.t.a.l._ 2 ^ b.Y.v.q.t._ 0 l / e.c.l.{ ! < P o.` o.w.{ Y 0 v | / { Q W A , H q.| o.q.e.] 0 9 W n N P / x ",
" X'.Y._.W.m.a...W { q.b.k.q.w...{ v.b.v.v.u.u./ W { o.M.P.k.q.W P { o.X.q.{ { { W ^ o.Q / / Q n N  ...{ o.e.u.` K o./ N B V / v ",
">.} ~ ' } ^ K Q K n M K K G b P K K P K M N M N M b b K I M b v n b m v b m k m B k l k k l k k l l l k b m b 9 m M k 8 6 8 k 4 "
};
